<svg version="1.1" id="Layer_1" xmlns="http://www.w3.org/2000/svg" xmlns:xlink="http://www.w3.org/1999/xlink" x="0px" y="0px"
	 width="100%" viewBox="0 0 1320 851" enable-background="new 0 0 1320 851" xml:space="preserve">
<path fill="#252525" opacity="1.000000" stroke="none" 
	d="
M571.000000,1.000000 
	C627.354248,1.000000 683.708435,1.000000 740.554443,1.414006 
	C742.030762,12.679855 743.076294,23.526619 743.981812,34.385063 
	C744.795532,44.143509 744.773682,54.024467 746.323242,63.657913 
	C749.715698,84.748779 753.380737,105.823097 757.899841,126.695145 
	C760.582520,139.085327 764.951904,151.125946 768.837036,163.235794 
	C772.868408,175.801651 777.125793,188.298080 781.485779,200.754364 
	C784.281616,208.741943 787.121582,216.742996 790.528198,224.479782 
	C793.986755,232.334503 798.123901,239.893494 802.040344,247.542786 
	C806.716797,256.676483 811.246521,265.896362 816.261963,274.842255 
	C821.182983,283.619507 826.505859,292.180542 831.886292,300.688599 
	C837.796936,310.035065 843.469849,319.596344 850.147034,328.379333 
	C861.972534,343.934113 874.354675,359.073151 886.756958,374.178436 
	C892.304626,380.935211 898.595581,387.077484 904.275208,393.732513 
	C906.267700,396.067108 907.440613,399.101105 908.738098,401.891205 
	C908.323730,402.023010 908.159180,402.079285 907.571411,402.075073 
	C902.990723,401.203552 901.100098,402.965546 899.907593,407.057190 
	C896.668213,418.171722 892.980713,429.158386 889.314514,440.143555 
	C888.574158,442.362030 887.145386,444.350769 886.006592,446.022827 
	C881.903137,433.731445 877.827026,421.862640 873.686279,409.630371 
	C872.248047,406.849579 871.128967,402.576996 869.455200,402.347321 
	C863.335876,401.507568 857.031616,402.015015 850.823425,402.015015 
	C850.823425,424.531830 850.823425,446.364716 850.823425,468.167328 
	C855.462158,468.167328 859.669006,468.167328 864.396851,468.167328 
	C864.396851,453.908417 864.396851,440.053131 864.396851,426.197876 
	C864.735535,426.127777 865.074158,426.057709 865.412842,425.987610 
	C866.893250,429.349213 868.373657,432.710815 869.878052,436.459778 
	C872.886658,445.531403 876.205444,454.120544 878.716736,462.939606 
	C879.994751,467.427856 881.952637,469.398987 886.545349,468.553589 
	C887.671387,468.346313 888.829651,468.314117 890.294800,468.318176 
	C891.522888,467.236938 892.795898,466.169983 893.278320,464.820404 
	C897.340393,453.454132 901.193054,442.012848 905.274597,430.653778 
	C906.068115,428.445496 907.583069,426.496429 908.635132,424.915955 
	C908.460388,438.551270 908.340393,451.699371 908.492310,464.844299 
	C908.506836,466.098175 910.099243,468.266876 911.166321,468.404510 
	C914.688354,468.858856 918.305481,468.575714 922.401123,468.575714 
	C922.401123,449.819336 922.401123,431.870453 922.800720,413.949158 
	C924.762573,414.775970 926.539673,415.321075 927.844727,416.424500 
	C931.091064,419.169373 934.122314,422.168671 937.083618,425.383484 
	C935.505798,428.616608 934.084229,431.531982 932.241272,435.311707 
	C937.255737,435.311707 940.703308,435.386902 944.143250,435.258179 
	C944.989502,435.226532 946.391785,434.693878 946.555054,434.114471 
	C948.456421,427.366058 953.856995,428.050598 959.238831,428.302094 
	C964.990845,432.275513 964.794373,436.257416 958.572327,439.272034 
	C951.838440,440.550415 945.382812,441.362610 939.224609,443.181610 
	C934.615356,444.543060 932.165039,448.447998 931.782166,453.413483 
	C931.378540,458.647583 932.053284,463.665009 936.853149,466.646179 
	C944.025818,471.100922 951.561218,471.103729 959.416016,467.118408 
	C961.063599,466.415955 962.356873,465.764160 963.630676,465.122162 
	C966.127808,469.096161 971.148315,469.962402 977.675659,467.861694 
	C977.502869,464.513855 977.335144,461.263031 977.519653,458.027039 
	C980.889038,459.697418 983.906128,461.352966 986.978760,463.428711 
	C987.157959,465.286896 987.281677,466.724884 987.465698,468.863953 
	C990.816406,468.863953 993.916565,468.863953 997.027832,469.238159 
	C997.812439,470.792908 998.317566,472.397003 999.403198,473.085052 
	C1006.383911,477.509125 1013.397644,481.897766 1020.578308,485.985809 
	C1033.510254,493.348083 1046.466919,500.679718 1059.606445,507.660492 
	C1068.801392,512.545654 1078.194336,517.106628 1087.725708,521.296326 
	C1097.030273,525.386353 1106.597900,528.886108 1116.096558,532.523804 
	C1124.389404,535.699646 1132.667603,538.948669 1141.101318,541.710754 
	C1147.663452,543.859985 1154.486938,545.197266 1161.135376,547.101257 
	C1168.114014,549.099792 1174.972656,551.530518 1181.983521,553.398010 
	C1185.304688,554.282715 1188.933472,553.974731 1192.291992,554.764343 
	C1201.906738,557.024780 1211.380981,559.934998 1221.053101,561.881104 
	C1228.015259,563.281982 1235.424072,562.716614 1242.244995,564.508179 
	C1253.178955,567.379883 1264.177368,568.006714 1275.325684,568.001282 
	C1283.989136,567.997009 1292.655029,567.881531 1301.315308,568.048462 
	C1307.491577,568.167542 1313.660522,568.673279 1319.904297,569.469788 
	C1319.985107,612.162292 1320.008423,654.391479 1319.994873,696.620605 
	C1319.990479,710.415466 1319.890137,724.210327 1319.509277,738.077759 
	C1316.817383,739.427734 1315.743408,742.969177 1311.384277,740.148621 
	C1308.739990,738.437683 1303.904053,740.156921 1300.050537,740.247314 
	C1298.817383,740.276184 1297.555664,740.128479 1296.344971,739.878052 
	C1293.612061,739.312988 1290.921143,738.205139 1288.180176,738.087036 
	C1281.858765,737.814697 1275.517334,738.026733 1269.184326,737.992493 
	C1262.854980,737.958313 1256.293091,738.912354 1250.246826,737.569763 
	C1238.820312,735.032532 1227.432617,733.560730 1215.756836,733.952271 
	C1213.819580,734.017212 1211.257568,734.137817 1210.025879,733.051514 
	C1206.339966,729.801086 1202.143188,729.926453 1197.794067,729.977417 
	C1196.141602,729.996826 1194.267090,730.225952 1192.869141,729.565186 
	C1185.727051,726.189453 1178.213257,725.718567 1170.502319,725.912354 
	C1168.660400,725.958679 1166.780029,724.966492 1164.937500,724.388123 
	C1162.506348,723.625061 1160.143921,722.565247 1157.665649,722.043335 
	C1149.797363,720.386353 1141.887451,718.928223 1134.000244,717.359070 
	C1133.538696,717.267212 1133.165894,716.783936 1132.702881,716.634583 
	C1129.908936,715.732910 1127.125977,714.781616 1124.292114,714.023132 
	C1118.280518,712.414185 1112.155640,711.179016 1106.234131,709.296997 
	C1099.738525,707.232422 1093.446167,704.536865 1087.014038,702.260559 
	C1082.699951,700.733765 1078.281494,699.503723 1073.939453,698.052429 
	C1071.520630,697.244080 1069.164795,696.248352 1066.776001,695.349182 
	C1065.560669,694.891724 1064.345703,694.430054 1063.112915,694.023438 
	C1057.924438,692.312195 1052.664185,690.794434 1047.553955,688.876343 
	C1041.813965,686.722046 1036.229248,684.157715 1030.535156,681.875916 
	C1026.302490,680.179749 1021.838745,678.982178 1017.770813,676.970398 
	C1011.130371,673.686279 1004.855408,669.657898 998.190918,666.429199 
	C991.367371,663.123413 984.052979,660.803589 977.328491,657.326843 
	C968.015198,652.511597 959.110840,646.912292 949.921265,641.848511 
	C942.207336,637.597839 934.123901,633.984009 926.597595,629.436829 
	C919.937195,625.412720 913.819519,620.490295 907.461670,615.965393 
	C906.654175,615.390564 905.862549,614.790466 905.030273,614.253784 
	C899.430237,610.642883 893.633667,607.303528 888.257263,603.386780 
	C879.352600,596.899719 870.701294,590.063660 861.975403,583.333008 
	C858.727661,580.827942 855.585876,578.186035 852.367126,575.642822 
	C849.787048,573.604309 847.171692,571.610107 844.557434,569.615356 
	C840.752747,566.712097 836.810486,563.973206 833.160400,560.887878 
	C829.983215,558.202271 827.171509,555.088623 824.113647,552.255493 
	C822.806763,551.044678 821.145203,550.207275 819.882202,548.959839 
	C807.133606,536.368347 794.301514,523.856934 781.765381,511.056244 
	C772.682800,501.782013 763.958557,492.153564 755.193970,482.573792 
	C753.097412,480.282288 751.679077,477.373230 749.598633,475.063660 
	C743.516357,468.311493 736.343506,462.548981 732.269348,454.024963 
	C731.217529,451.824188 728.036133,450.641205 725.702026,448.563660 
	C726.474670,444.761322 726.709351,440.999084 728.398926,438.078491 
	C735.289612,426.167206 742.625427,414.513458 750.269836,401.990540 
	C745.861389,401.990540 742.247986,402.297760 738.712097,401.905945 
	C735.021667,401.497009 732.968384,403.028778 731.278442,406.049469 
	C727.764648,412.330322 724.102478,418.530792 720.364807,424.681366 
	C719.718506,425.744904 718.400269,426.400116 717.254517,426.811462 
	C714.588196,422.086273 711.587769,417.996704 709.633545,413.456818 
	C706.023499,405.070679 700.942444,399.735901 691.065918,401.491150 
	C691.042175,399.442352 691.526489,397.402893 690.755981,396.113098 
	C685.980286,388.119598 680.695190,380.426544 676.023804,372.375732 
	C671.496643,364.573303 667.600037,356.407867 663.246643,348.500885 
	C659.750488,342.150696 655.586853,336.142487 652.422546,329.640350 
	C645.855957,316.146851 639.705200,302.449371 633.483215,288.790344 
	C629.383423,279.789917 625.111084,270.844177 621.549011,261.629181 
	C617.831299,252.011398 614.813416,242.119522 611.607971,232.308746 
	C610.073242,227.611252 608.929382,222.786194 607.398987,218.087128 
	C605.138245,211.145523 602.621216,204.287521 600.347290,197.350021 
	C598.809265,192.657806 597.282043,187.942276 596.142700,183.143921 
	C594.472656,176.110535 593.264526,168.968536 591.658508,161.918625 
	C589.475098,152.334244 587.026245,142.810379 584.834656,133.227753 
	C583.124939,125.752510 585.347412,117.468498 580.201965,110.677368 
	C579.944641,110.337685 580.077026,109.703476 580.025818,109.206657 
	C579.157349,100.787926 578.357117,92.361450 577.403442,83.952385 
	C575.997681,71.556458 574.163696,59.199841 573.114746,46.775597 
	C572.276855,36.850807 572.388550,26.848040 571.979492,16.883963 
	C571.761963,11.584835 571.333374,6.294373 571.000000,1.000000 
M744.210693,443.615723 
	C745.399841,448.554413 745.617798,454.021820 747.963623,458.330750 
	C754.508484,470.352264 771.628906,473.565948 783.668152,465.714142 
	C794.407471,458.710144 797.593567,440.657349 790.045593,429.578522 
	C784.036377,420.758270 772.732666,417.035614 761.316711,420.117218 
	C751.320251,422.815613 745.270569,430.896240 744.210693,443.615723 
M808.541382,475.376129 
	C806.046875,475.372742 803.545166,475.488770 801.059631,475.337830 
	C797.373169,475.113892 796.743591,476.790344 798.007385,480.250793 
	C799.622009,480.250793 801.257141,480.250824 802.892334,480.250824 
	C816.500916,480.250824 830.109558,480.250793 844.155273,480.250793 
	C844.034241,478.390869 843.945251,477.023224 843.838135,475.377014 
	C832.114258,475.377014 820.820923,475.377014 808.541382,475.376129 
z"/>
<path fill="#1F1F1F" opacity="1.000000" stroke="none" 
	d="
M570.531372,1.000000 
	C571.333374,6.294373 571.761963,11.584835 571.979492,16.883963 
	C572.388550,26.848040 572.276855,36.850807 573.114746,46.775597 
	C574.163696,59.199841 575.997681,71.556458 577.403442,83.952385 
	C578.357117,92.361450 579.157349,100.787926 580.025818,109.206657 
	C580.077026,109.703476 579.944641,110.337685 580.201965,110.677368 
	C585.347412,117.468498 583.124939,125.752510 584.834656,133.227753 
	C587.026245,142.810379 589.475098,152.334244 591.658508,161.918625 
	C593.264526,168.968536 594.472656,176.110535 596.142700,183.143921 
	C597.282043,187.942276 598.809265,192.657806 600.347290,197.350021 
	C602.621216,204.287521 605.138245,211.145523 607.398987,218.087128 
	C608.929382,222.786194 610.073242,227.611252 611.607971,232.308746 
	C614.813416,242.119522 617.831299,252.011398 621.549011,261.629181 
	C625.111084,270.844177 629.383423,279.789917 633.483215,288.790344 
	C639.705200,302.449371 645.855957,316.146851 652.422546,329.640350 
	C655.586853,336.142487 659.750488,342.150696 663.246643,348.500885 
	C667.600037,356.407867 671.496643,364.573303 676.023804,372.375732 
	C680.695190,380.426544 685.980286,388.119598 690.755981,396.113098 
	C691.526489,397.402893 691.042175,399.442352 690.686401,401.560364 
	C688.992310,402.046387 687.749695,402.107391 686.077148,402.189484 
	C692.031860,412.034241 697.717468,421.521027 703.492615,430.953064 
	C707.748962,437.904785 712.441650,444.513519 710.953369,453.549500 
	C710.166687,458.325592 710.814148,463.337860 710.814148,468.607147 
	C713.726746,468.434723 715.854797,468.308746 718.361938,468.299866 
	C720.841370,468.417023 722.941711,468.417023 725.833008,468.417023 
	C725.833008,461.551697 725.833008,455.271179 725.833008,448.990692 
	C728.036133,450.641205 731.217529,451.824188 732.269348,454.024963 
	C736.343506,462.548981 743.516357,468.311493 749.598633,475.063660 
	C751.679077,477.373230 753.097412,480.282288 755.193970,482.573792 
	C763.958557,492.153564 772.682800,501.782013 781.765381,511.056244 
	C794.301514,523.856934 807.133606,536.368347 819.882202,548.959839 
	C821.145203,550.207275 822.806763,551.044678 824.113647,552.255493 
	C827.171509,555.088623 829.983215,558.202271 833.160400,560.887878 
	C836.810486,563.973206 840.752747,566.712097 844.557434,569.615356 
	C847.171692,571.610107 849.787048,573.604309 852.367126,575.642822 
	C855.585876,578.186035 858.727661,580.827942 861.975403,583.333008 
	C870.701294,590.063660 879.352600,596.899719 888.257263,603.386780 
	C893.633667,607.303528 899.430237,610.642883 905.030273,614.253784 
	C905.862549,614.790466 906.654175,615.390564 907.461670,615.965393 
	C913.819519,620.490295 919.937195,625.412720 926.597595,629.436829 
	C934.123901,633.984009 942.207336,637.597839 949.921265,641.848511 
	C959.110840,646.912292 968.015198,652.511597 977.328491,657.326843 
	C984.052979,660.803589 991.367371,663.123413 998.190918,666.429199 
	C1004.855408,669.657898 1011.130371,673.686279 1017.770813,676.970398 
	C1021.838745,678.982178 1026.302490,680.179749 1030.535156,681.875916 
	C1036.229248,684.157715 1041.813965,686.722046 1047.553955,688.876343 
	C1052.664185,690.794434 1057.924438,692.312195 1063.112915,694.023438 
	C1064.345703,694.430054 1065.560669,694.891724 1066.776001,695.349182 
	C1069.164795,696.248352 1071.520630,697.244080 1073.939453,698.052429 
	C1078.281494,699.503723 1082.699951,700.733765 1087.014038,702.260559 
	C1093.446167,704.536865 1099.738525,707.232422 1106.234131,709.296997 
	C1112.155640,711.179016 1118.280518,712.414185 1124.292114,714.023132 
	C1127.125977,714.781616 1129.908936,715.732910 1132.702881,716.634583 
	C1133.165894,716.783936 1133.538696,717.267212 1134.000244,717.359070 
	C1141.887451,718.928223 1149.797363,720.386353 1157.665649,722.043335 
	C1160.143921,722.565247 1162.506348,723.625061 1164.937500,724.388123 
	C1166.780029,724.966492 1168.660400,725.958679 1170.502319,725.912354 
	C1178.213257,725.718567 1185.727051,726.189453 1192.869141,729.565186 
	C1194.267090,730.225952 1196.141602,729.996826 1197.794067,729.977417 
	C1202.143188,729.926453 1206.339966,729.801086 1210.025879,733.051514 
	C1211.257568,734.137817 1213.819580,734.017212 1215.756836,733.952271 
	C1227.432617,733.560730 1238.820312,735.032532 1250.246826,737.569763 
	C1256.293091,738.912354 1262.854980,737.958313 1269.184326,737.992493 
	C1275.517334,738.026733 1281.858765,737.814697 1288.180176,738.087036 
	C1290.921143,738.205139 1293.612061,739.312988 1296.344971,739.878052 
	C1297.555664,740.128479 1298.817383,740.276184 1300.050537,740.247314 
	C1303.904053,740.156921 1308.739990,738.437683 1311.384277,740.148621 
	C1315.743408,742.969177 1316.817383,739.427734 1319.582031,738.541077 
	C1319.986938,773.062988 1320.053711,807.194397 1319.914917,841.324890 
	C1319.900391,844.885803 1318.667480,848.441772 1318.000000,852.000000 
	C1262.312378,852.000000 1206.624878,852.000000 1150.521973,851.654907 
	C1151.448975,846.479248 1147.073120,847.340393 1145.237061,847.266968 
	C1134.040894,846.819031 1123.510620,843.759399 1113.082764,840.051147 
	C1111.532715,839.500000 1109.832764,839.378296 1108.210571,839.020569 
	C1100.668823,837.357849 1093.071167,835.906372 1085.606323,833.949280 
	C1077.658081,831.865479 1069.827026,829.329590 1061.962646,826.932617 
	C1055.974365,825.107483 1049.958618,823.348755 1044.053589,821.279175 
	C1034.592651,817.963318 1025.199951,814.450928 1015.807678,810.942993 
	C1012.865479,809.844055 1010.054382,808.396912 1007.120422,807.273071 
	C997.769043,803.690857 988.318726,800.357239 979.040588,796.596924 
	C971.586975,793.576050 964.317505,790.098267 956.986511,786.778687 
	C951.285400,784.197205 945.580811,781.618225 939.950378,778.888428 
	C938.029663,777.957214 936.437866,776.341858 934.510437,775.431458 
	C926.699951,771.742432 918.694336,768.447998 911.001343,764.534851 
	C905.116394,761.541443 899.601074,757.823486 893.907349,754.451477 
	C881.293030,746.980652 868.611816,739.620544 856.075562,732.021179 
	C850.039062,728.361877 844.302734,724.210938 838.369324,720.377319 
	C831.930908,716.217407 825.171021,712.510010 818.995728,707.997253 
	C806.728088,699.032532 794.720093,689.709229 782.691956,680.421204 
	C774.070374,673.763794 765.488403,667.046509 757.089050,660.113281 
	C752.650452,656.449463 748.739624,652.153931 744.414062,648.343811 
	C736.909546,641.733643 729.011597,635.550659 721.744812,628.694397 
	C711.248474,618.791016 701.109619,608.504883 690.932373,598.268555 
	C685.023621,592.325562 679.255371,586.236816 673.581909,580.068298 
	C669.905029,576.070557 666.589050,571.743103 662.975952,567.683960 
	C657.823303,561.895203 652.259338,556.448730 647.400574,550.428711 
	C642.140381,543.911255 637.559875,536.849731 632.556274,530.119751 
	C623.093262,517.391663 613.512207,504.751343 604.051025,492.021912 
	C602.510864,489.949677 601.334595,487.606964 600.358765,485.354523 
	C605.462463,484.443176 610.197571,483.566559 615.221558,482.540955 
	C616.985046,480.422729 618.990234,478.660156 619.850098,476.451630 
	C626.713623,458.824585 633.368652,441.116211 640.046143,423.417145 
	C640.352539,422.605011 640.263916,421.643829 640.333801,420.990021 
	C636.480225,420.990021 632.998779,420.767365 629.572876,421.106628 
	C628.315979,421.231110 626.486816,422.453918 626.118530,423.571198 
	C623.467712,431.613312 621.197144,439.780151 618.612549,447.845459 
	C618.194763,449.148865 616.815918,450.144257 615.821472,450.884827 
	C612.935242,441.830475 610.173950,433.150879 607.213867,424.539581 
	C606.756653,423.209442 605.476379,421.295105 604.424011,421.190704 
	C600.431152,420.794617 596.375488,421.031250 591.906555,421.031250 
	C597.378967,435.600403 602.502380,449.181702 607.580383,462.779938 
	C610.906982,471.688263 609.104309,474.167664 599.677307,474.383942 
	C598.415894,474.412872 597.192322,476.088837 595.612854,476.936707 
	C593.697937,475.286316 592.086670,473.734161 590.552368,472.109283 
	C587.709473,469.098663 584.911621,466.045502 582.228271,462.701904 
	C586.477356,457.302887 588.580200,451.496735 588.773376,444.940582 
	C589.087280,434.285431 583.676941,424.536377 574.649292,421.234741 
	C570.745483,419.806976 566.266296,419.952240 561.653625,419.298431 
	C560.183350,419.239777 559.107910,419.265686 557.955688,418.941467 
	C553.792419,410.958710 549.707092,403.325439 545.619324,395.693542 
	C540.723694,386.553436 535.799622,377.428467 530.943787,368.267334 
	C529.270935,365.111328 527.615112,361.930450 526.220337,358.646759 
	C524.242981,353.991730 522.619324,349.186890 520.659058,344.524078 
	C515.872070,333.137604 510.661255,321.918457 506.214294,310.402863 
	C501.461639,298.095734 497.332458,285.545410 493.038696,273.064240 
	C489.922882,264.007202 486.740051,254.961258 484.034821,245.778458 
	C481.565704,237.396942 479.787872,228.814194 477.532684,220.366241 
	C476.176605,215.286270 474.275574,210.347748 473.010376,205.248672 
	C471.663361,199.819992 470.927155,194.241913 469.654297,188.792130 
	C467.892120,181.247177 465.599731,173.818481 464.035187,166.236679 
	C461.569855,154.289566 459.282013,142.294708 457.357330,130.250000 
	C454.993042,115.454460 452.807068,100.618546 451.078369,85.738007 
	C450.122742,77.511879 450.423553,69.147873 449.870056,60.865261 
	C448.678223,43.030613 447.317902,25.207073 445.974915,7.382880 
	C445.813660,5.242918 445.332733,3.127042 445.000000,1.000002 
	C486.687561,1.000000 528.375122,1.000000 570.531372,1.000000 
M641.347839,479.878296 
	C656.453003,479.878296 671.558105,479.878296 687.048950,479.878296 
	C686.908081,478.353455 686.782288,476.991699 686.644226,475.497498 
	C672.051270,475.497498 657.898560,475.529236 643.746216,475.470337 
	C640.957214,475.458740 640.198120,476.717468 641.347839,479.878296 
z"/>
<path fill="#151515" opacity="1.000000" stroke="none" 
	d="
M172.000000,1.000000 
	C222.687561,1.000000 273.375122,1.000000 324.555359,1.420787 
	C325.365326,4.973368 325.880371,8.100070 325.961182,11.237955 
	C326.165741,19.183971 325.853912,27.154280 326.329132,35.080070 
	C327.361542,52.298199 328.713318,69.497887 330.033813,86.697495 
	C330.342316,90.715866 331.005646,94.709717 331.578613,98.704399 
	C332.348694,104.073410 333.282379,109.420502 333.964417,114.800003 
	C334.359802,117.918564 334.287201,121.094200 334.621216,124.223228 
	C335.440887,131.902039 336.322815,139.575226 337.297302,147.235733 
	C337.545837,149.189529 338.252289,151.082870 338.714478,153.012115 
	C339.820251,157.627686 341.082275,162.215912 341.932739,166.878738 
	C342.434387,169.629013 341.819733,172.613083 342.488892,175.297089 
	C344.739563,184.324860 347.499969,193.225906 349.730652,202.258087 
	C350.637360,205.929413 349.593658,210.439499 351.338074,213.476089 
	C355.600006,220.894943 351.715454,230.254761 357.665710,237.103577 
	C358.439697,237.994476 357.835663,240.019424 358.023651,241.499557 
	C358.229462,243.120041 358.539276,244.736404 358.934814,246.321899 
	C359.917877,250.262177 360.994843,254.178940 361.991943,258.115814 
	C362.313446,259.385132 362.340363,260.746765 362.781525,261.964966 
	C364.975494,268.023010 367.431427,273.990814 369.474701,280.097595 
	C372.064941,287.838989 374.330383,295.688751 376.766998,303.482056 
	C378.513702,309.068726 380.217987,314.671295 382.108459,320.209717 
	C384.967163,328.584869 387.886383,336.941589 390.942505,345.246307 
	C393.137634,351.211243 395.625641,357.067810 397.931305,362.992828 
	C399.659149,367.433014 400.695282,372.272644 403.114960,376.285919 
	C408.004333,384.395416 409.719116,394.282776 416.636902,400.989044 
	C416.066132,401.427826 415.581573,401.967010 415.679718,402.360962 
	C418.602509,414.093201 415.413452,424.730469 409.629517,435.131653 
	C407.572021,438.244843 405.815796,441.196320 403.787109,444.330444 
	C401.312744,447.250946 399.110870,449.988800 396.620850,452.909302 
	C393.857697,456.199951 391.382690,459.307953 388.604492,462.601929 
	C385.240967,466.876709 382.180634,470.965546 378.850922,475.259399 
	C372.609222,484.302032 368.567871,493.867401 368.396667,504.670197 
	C368.262878,513.110779 370.160675,520.899292 376.250824,525.972351 
	C378.132172,519.047485 380.041901,512.018311 382.199158,504.758240 
	C385.043915,500.816254 387.641083,497.105133 390.545593,493.251526 
	C393.274475,490.487579 395.696014,487.866119 398.427124,485.103882 
	C401.239532,482.103088 403.742401,479.243073 406.548584,476.230591 
	C409.056427,473.413239 411.260956,470.748383 413.694458,467.782104 
	C415.958496,463.336853 417.993591,459.193024 420.314331,454.807281 
	C422.103760,446.378998 423.607513,438.192657 425.471069,430.023438 
	C427.127594,431.167694 428.876984,432.049377 429.644012,433.463776 
	C433.265289,440.141266 436.530426,447.011169 440.105255,453.714996 
	C441.729767,456.761353 443.959564,459.484039 445.596100,462.525055 
	C449.140106,469.110779 452.257477,475.932983 455.955475,482.427185 
	C460.944122,491.188049 466.340790,499.715790 471.513550,508.372742 
	C475.757477,515.475220 479.763153,522.725891 484.181702,529.716675 
	C488.507355,536.560425 493.091522,543.251404 497.793732,549.844238 
	C506.029114,561.390808 514.380432,572.856140 522.803467,584.266785 
	C527.618530,590.789734 532.776917,597.059204 537.589233,603.584167 
	C543.341675,611.383850 548.887146,619.335938 554.535461,627.212524 
	C554.719604,627.469360 555.084900,627.589172 555.304077,627.829163 
	C560.075317,633.052856 564.788147,638.330994 569.622559,643.495361 
	C572.080017,646.120605 574.896973,648.414246 577.303101,651.081787 
	C586.257263,661.008850 594.988892,671.138855 604.040771,680.974854 
	C609.967529,687.414917 616.278137,693.503540 622.460022,699.706543 
	C629.471191,706.741699 636.308472,713.971741 643.632263,720.667542 
	C650.734253,727.160522 658.437073,732.990906 665.733154,739.278015 
	C676.887512,748.889832 687.668030,758.952698 699.082520,768.240051 
	C708.180298,775.642395 717.940796,782.238098 727.493347,789.071472 
	C737.237427,796.041931 747.035034,802.940430 756.906250,809.729370 
	C764.740845,815.117615 772.742432,820.262451 780.632935,825.570251 
	C791.388245,832.805420 802.103027,840.100769 812.847961,847.351379 
	C815.204529,848.941650 817.614624,850.452515 820.000000,852.000000 
	C732.645752,852.000000 645.291565,852.000000 557.452271,851.636353 
	C556.331970,850.162537 555.918152,848.815796 555.025696,847.980225 
	C548.751221,842.106445 542.227356,836.493103 536.068909,830.502747 
	C523.938904,818.703979 511.951752,806.757141 499.986755,794.790283 
	C490.968689,785.770630 481.914429,776.777283 473.187408,767.480164 
	C467.521820,761.444397 462.437897,754.864502 457.053925,748.562073 
	C446.488403,736.194214 435.574341,724.107178 425.405426,711.422241 
	C415.548676,699.126648 406.373444,686.279907 397.034851,673.575256 
	C389.466034,663.278320 381.796234,653.034973 374.708496,642.409485 
	C361.908020,623.219849 349.446259,603.802795 336.973694,584.396667 
	C332.130859,576.861755 327.450775,569.207397 323.042175,561.412048 
	C317.891022,552.303650 313.032013,543.026123 308.198944,533.742554 
	C299.612091,517.248718 290.639435,500.929749 282.754242,484.103638 
	C274.013916,465.452728 266.184845,446.368713 258.202759,427.370850 
	C253.187149,415.433350 248.322189,403.415070 243.921860,391.240662 
	C237.428787,373.276276 231.102570,355.238861 225.280914,337.048340 
	C220.165924,321.065857 215.622635,304.889526 211.240967,288.686798 
	C207.950272,276.518433 205.254456,264.186829 202.405594,251.901947 
	C198.885361,236.721863 195.207153,221.570312 192.117279,206.301178 
	C189.853775,195.115616 188.396667,183.765366 186.637543,172.479568 
	C184.415726,158.225418 181.715622,144.019440 180.185913,129.689774 
	C177.721375,106.603096 175.647095,83.457848 174.157822,60.289135 
	C172.889771,40.561367 172.678696,20.765654 172.000000,1.000000 
M408.831451,523.010925 
	C410.546021,521.941345 412.260620,520.871826 414.614624,519.641724 
	C417.061218,517.682556 419.507812,515.723328 422.595856,513.611694 
	C424.754089,510.787689 426.912323,507.963715 429.681366,504.794678 
	C439.481415,491.617004 437.120209,478.140106 427.491791,464.932770 
	C427.096069,470.302338 426.700378,475.671875 426.037292,481.724609 
	C424.331543,485.280579 422.625793,488.836578 420.272888,492.696716 
	C417.794922,495.624359 415.316956,498.552002 412.248840,501.847198 
	C410.171997,503.916473 408.095154,505.985748 405.393982,508.291412 
	C402.618774,510.935150 399.843567,513.578918 396.505005,516.548706 
	C388.859497,523.440369 385.699188,532.026672 386.022675,542.840820 
	C390.449677,537.999695 394.212280,533.885193 398.650116,529.700745 
	C401.818878,527.491333 404.987671,525.281860 408.831451,523.010925 
M393.938507,422.674469 
	C402.255035,407.591064 402.781311,392.666504 392.944153,377.253998 
	C390.969727,374.489838 388.995331,371.725647 386.806976,368.322144 
	C384.554718,365.843658 382.302490,363.365173 379.808044,360.304321 
	C378.574738,359.187500 377.341400,358.070648 375.831177,356.317810 
	C372.233459,353.502686 368.635742,350.687561 364.789856,347.250061 
	C362.482849,345.425781 360.175842,343.601532 357.868835,341.777252 
	C357.543762,342.112488 357.218719,342.447754 356.893646,342.782990 
	C359.255737,345.868439 361.617828,348.953888 364.217163,352.725952 
	C373.187134,371.400146 374.523834,389.833771 362.054047,408.321503 
	C359.364136,411.868591 356.674225,415.415649 353.399963,419.285706 
	C351.040405,421.756836 348.680847,424.227936 345.769012,427.006683 
	C343.767090,428.973816 341.765137,430.940918 339.164001,433.167633 
	C336.964508,435.379120 334.764984,437.590607 331.983887,440.069427 
	C329.651581,442.369904 327.319244,444.670380 324.409637,447.302887 
	C321.932129,450.187744 319.454620,453.072601 316.408051,456.313049 
	C301.195740,473.928406 300.979279,496.800385 316.146179,512.668152 
	C319.094604,515.451965 322.043030,518.235840 325.258698,521.633301 
	C327.864349,523.376526 330.470032,525.119751 333.503693,527.380371 
	C336.012146,528.895569 338.520599,530.410828 341.234344,532.609375 
	C344.086914,533.881775 346.939484,535.154236 350.306946,536.861450 
	C357.645142,539.677612 364.983337,542.493774 372.321503,545.309937 
	C372.479187,544.976807 372.636902,544.643677 372.794586,544.310608 
	C365.867615,536.194763 358.940643,528.078979 351.902649,519.227539 
	C345.928345,508.843353 346.648132,497.989075 349.933167,486.277344 
	C352.172760,481.505035 354.412354,476.732727 357.067444,471.400360 
	C359.940369,467.586548 362.813263,463.772766 366.185364,459.452393 
	C369.537292,455.332916 372.889252,451.213409 376.808868,446.779053 
	C378.213013,444.855255 379.617157,442.931458 381.611847,440.689362 
	C383.558716,437.858521 385.505615,435.027679 388.044952,431.914307 
	C389.867462,429.001831 391.690002,426.089355 393.938507,422.674469 
z"/>
<path fill="#2C2C2C" opacity="1.000000" stroke="none" 
	d="
M1319.832642,569.006409 
	C1313.660522,568.673279 1307.491577,568.167542 1301.315308,568.048462 
	C1292.655029,567.881531 1283.989136,567.997009 1275.325684,568.001282 
	C1264.177368,568.006714 1253.178955,567.379883 1242.244995,564.508179 
	C1235.424072,562.716614 1228.015259,563.281982 1221.053101,561.881104 
	C1211.380981,559.934998 1201.906738,557.024780 1192.291992,554.764343 
	C1188.933472,553.974731 1185.304688,554.282715 1181.983521,553.398010 
	C1174.972656,551.530518 1168.114014,549.099792 1161.135376,547.101257 
	C1154.486938,545.197266 1147.663452,543.859985 1141.101318,541.710754 
	C1132.667603,538.948669 1124.389404,535.699646 1116.096558,532.523804 
	C1106.597900,528.886108 1097.030273,525.386353 1087.725708,521.296326 
	C1078.194336,517.106628 1068.801392,512.545654 1059.606445,507.660492 
	C1046.466919,500.679718 1033.510254,493.348083 1020.578308,485.985809 
	C1013.397644,481.897766 1006.383911,477.509125 999.403198,473.085052 
	C998.317566,472.397003 997.812439,470.792908 997.403564,469.163818 
	C1001.037537,468.584595 1000.669128,466.166931 1000.675293,464.032867 
	C1000.696472,456.743439 1000.648010,449.453644 1000.703003,442.164551 
	C1000.768555,433.478790 1002.735107,431.032745 1011.256226,429.432068 
	C1017.044128,430.618713 1018.873108,434.399292 1018.933777,439.362640 
	C1019.029297,447.175476 1019.281677,455.004547 1018.896606,462.798492 
	C1018.653687,467.716248 1020.362244,469.476074 1025.084106,468.755676 
	C1026.222412,468.582062 1027.657227,469.131622 1028.514648,468.615692 
	C1029.895142,467.785065 1031.894653,466.368103 1031.922974,465.158844 
	C1032.164062,454.858032 1032.365112,444.532410 1031.897583,434.245178 
	C1031.369873,422.632782 1022.617188,416.858276 1010.603149,419.852051 
	C1006.908752,421.504028 1003.596252,423.149628 1000.184998,424.844269 
	C999.941406,423.699707 999.617737,422.178436 999.217102,420.295776 
	C997.182373,420.295776 995.344482,420.489929 993.561829,420.258514 
	C988.671936,419.623871 986.835022,421.264343 986.983643,426.532288 
	C987.326416,438.680786 986.986267,450.848541 986.923218,463.008484 
	C983.906128,461.352966 980.889038,459.697418 977.454895,457.561401 
	C977.021057,450.479980 977.000427,443.879089 976.988159,437.278198 
	C976.964600,424.599243 972.805908,420.225006 959.515320,419.314209 
	C951.093384,418.581238 943.630981,419.816223 937.239929,425.065765 
	C934.122314,422.168671 931.091064,419.169373 927.844727,416.424500 
	C926.539673,415.321075 924.762573,414.775970 922.738403,413.500153 
	C922.276428,409.473053 922.276428,405.922577 922.276428,401.815735 
	C917.440247,401.815735 913.213989,401.815735 908.987793,401.815735 
	C907.440613,399.101105 906.267700,396.067108 904.275208,393.732513 
	C898.595581,387.077484 892.304626,380.935211 886.756958,374.178436 
	C874.354675,359.073151 861.972534,343.934113 850.147034,328.379333 
	C843.469849,319.596344 837.796936,310.035065 831.886292,300.688599 
	C826.505859,292.180542 821.182983,283.619507 816.261963,274.842255 
	C811.246521,265.896362 806.716797,256.676483 802.040344,247.542786 
	C798.123901,239.893494 793.986755,232.334503 790.528198,224.479782 
	C787.121582,216.742996 784.281616,208.741943 781.485779,200.754364 
	C777.125793,188.298080 772.868408,175.801651 768.837036,163.235794 
	C764.951904,151.125946 760.582520,139.085327 757.899841,126.695145 
	C753.380737,105.823097 749.715698,84.748779 746.323242,63.657913 
	C744.773682,54.024467 744.795532,44.143509 743.981812,34.385063 
	C743.076294,23.526619 742.030762,12.679855 741.023071,1.414006 
	C799.354248,1.000000 857.708435,1.000000 916.590759,1.352746 
	C918.412537,9.708371 920.398071,17.674242 920.828735,25.723289 
	C921.394775,36.305214 921.297424,46.791912 924.083313,57.240974 
	C926.574158,66.583511 927.030212,76.453758 929.228943,85.894394 
	C930.589050,91.734528 933.781799,97.124329 933.529968,103.426651 
	C933.498657,104.208862 934.749146,104.972992 935.167664,105.858063 
	C935.866699,107.336113 936.503662,108.869141 936.937683,110.442207 
	C938.509216,116.137703 939.501587,122.045540 941.609619,127.528328 
	C944.885071,136.047409 948.870422,144.295105 952.607361,152.634354 
	C953.925964,155.577225 955.453186,158.426239 956.789612,161.361633 
	C959.960754,168.326721 962.919434,175.393646 966.276428,182.266800 
	C967.982300,185.759262 970.367859,188.919189 972.439026,192.233887 
	C975.655396,197.381317 978.724243,202.627609 982.107849,207.662460 
	C989.368958,218.466949 996.533813,229.352936 1004.255737,239.823776 
	C1008.120544,245.064468 1013.283569,249.327454 1017.565796,254.286179 
	C1022.284180,259.749908 1026.424683,265.721008 1031.244385,271.087097 
	C1041.094849,282.053864 1053.404541,290.374237 1064.004761,300.403595 
	C1075.413452,311.197845 1088.454712,319.276276 1101.169067,327.970459 
	C1109.631348,333.757050 1118.827148,338.473541 1127.712402,343.638580 
	C1134.054810,347.325439 1140.249634,351.326447 1146.834229,354.519470 
	C1153.569458,357.785645 1160.681885,360.282623 1167.663574,363.029053 
	C1171.743774,364.634094 1175.905396,366.030731 1180.004395,367.589691 
	C1184.286865,369.218475 1188.529907,370.950714 1192.806396,372.595795 
	C1195.012207,373.444336 1197.224365,374.297668 1199.486084,374.973389 
	C1201.681274,375.629181 1203.957886,376.007629 1206.172852,376.603699 
	C1209.021729,377.370392 1211.811401,378.381287 1214.685547,379.024048 
	C1221.697021,380.592102 1229.381348,380.720520 1235.612915,383.811310 
	C1243.456787,387.701813 1251.643555,386.000397 1259.426758,388.014954 
	C1262.676880,388.856171 1265.814575,390.684601 1269.069214,390.863220 
	C1285.978760,391.791138 1302.909668,392.331604 1319.903931,393.470520 
	C1319.984619,442.153259 1320.004517,490.372528 1319.996338,538.591797 
	C1319.994629,548.729980 1319.889893,558.868225 1319.832642,569.006409 
M1042.897217,431.525543 
	C1042.899536,442.352722 1043.039551,453.182556 1042.829224,464.005585 
	C1042.755737,467.783417 1044.072144,469.215149 1047.735352,468.803772 
	C1049.051514,468.655945 1050.407715,468.670837 1051.728516,468.795013 
	C1054.985840,469.101196 1056.072754,467.709900 1056.039795,464.459686 
	C1055.904419,451.135345 1055.902710,437.807922 1056.046509,424.483704 
	C1056.082153,421.176422 1054.868896,420.208618 1051.684814,420.148560 
	C1042.897827,419.982880 1042.900146,419.858582 1042.896973,428.537445 
	C1042.896729,429.203735 1042.896973,429.870026 1042.897217,431.525543 
M1055.879761,411.139862 
	C1056.237183,401.231049 1056.099976,401.101135 1046.260498,402.008545 
	C1045.931885,402.038879 1045.392090,401.927338 1045.303955,402.082520 
	C1044.457397,403.573029 1043.010010,405.127991 1043.057007,406.622894 
	C1043.123413,408.737885 1044.082153,412.479279 1045.057495,412.612518 
	C1048.485962,413.081024 1052.084717,412.304016 1055.879761,411.139862 
z"/>
<path fill="#1A1A1A" opacity="1.000000" stroke="none" 
	d="
M820.468628,852.000000 
	C817.614624,850.452515 815.204529,848.941650 812.847961,847.351379 
	C802.103027,840.100769 791.388245,832.805420 780.632935,825.570251 
	C772.742432,820.262451 764.740845,815.117615 756.906250,809.729370 
	C747.035034,802.940430 737.237427,796.041931 727.493347,789.071472 
	C717.940796,782.238098 708.180298,775.642395 699.082520,768.240051 
	C687.668030,758.952698 676.887512,748.889832 665.733154,739.278015 
	C658.437073,732.990906 650.734253,727.160522 643.632263,720.667542 
	C636.308472,713.971741 629.471191,706.741699 622.460022,699.706543 
	C616.278137,693.503540 609.967529,687.414917 604.040771,680.974854 
	C594.988892,671.138855 586.257263,661.008850 577.303101,651.081787 
	C574.896973,648.414246 572.080017,646.120605 569.622559,643.495361 
	C564.788147,638.330994 560.075317,633.052856 555.304077,627.829163 
	C555.084900,627.589172 554.719604,627.469360 554.535461,627.212524 
	C548.887146,619.335938 543.341675,611.383850 537.589233,603.584167 
	C532.776917,597.059204 527.618530,590.789734 522.803467,584.266785 
	C514.380432,572.856140 506.029114,561.390808 497.793732,549.844238 
	C493.091522,543.251404 488.507355,536.560425 484.181702,529.716675 
	C479.763153,522.725891 475.757477,515.475220 471.513550,508.372742 
	C466.340790,499.715790 460.944122,491.188049 455.955475,482.427185 
	C452.257477,475.932983 449.140106,469.110779 445.596100,462.525055 
	C443.959564,459.484039 441.729767,456.761353 440.105255,453.714996 
	C436.530426,447.011169 433.265289,440.141266 429.644012,433.463776 
	C428.876984,432.049377 427.127594,431.167694 425.418182,429.590027 
	C423.366272,421.713409 421.727020,414.287262 419.961426,406.552979 
	C418.888306,404.503754 417.941498,402.762756 416.994720,401.021729 
	C409.719116,394.282776 408.004333,384.395416 403.114960,376.285919 
	C400.695282,372.272644 399.659149,367.433014 397.931305,362.992828 
	C395.625641,357.067810 393.137634,351.211243 390.942505,345.246307 
	C387.886383,336.941589 384.967163,328.584869 382.108459,320.209717 
	C380.217987,314.671295 378.513702,309.068726 376.766998,303.482056 
	C374.330383,295.688751 372.064941,287.838989 369.474701,280.097595 
	C367.431427,273.990814 364.975494,268.023010 362.781525,261.964966 
	C362.340363,260.746765 362.313446,259.385132 361.991943,258.115814 
	C360.994843,254.178940 359.917877,250.262177 358.934814,246.321899 
	C358.539276,244.736404 358.229462,243.120041 358.023651,241.499557 
	C357.835663,240.019424 358.439697,237.994476 357.665710,237.103577 
	C351.715454,230.254761 355.600006,220.894943 351.338074,213.476089 
	C349.593658,210.439499 350.637360,205.929413 349.730652,202.258087 
	C347.499969,193.225906 344.739563,184.324860 342.488892,175.297089 
	C341.819733,172.613083 342.434387,169.629013 341.932739,166.878738 
	C341.082275,162.215912 339.820251,157.627686 338.714478,153.012115 
	C338.252289,151.082870 337.545837,149.189529 337.297302,147.235733 
	C336.322815,139.575226 335.440887,131.902039 334.621216,124.223228 
	C334.287201,121.094200 334.359802,117.918564 333.964417,114.800003 
	C333.282379,109.420502 332.348694,104.073410 331.578613,98.704399 
	C331.005646,94.709717 330.342316,90.715866 330.033813,86.697495 
	C328.713318,69.497887 327.361542,52.298199 326.329132,35.080070 
	C325.853912,27.154280 326.165741,19.183971 325.961182,11.237955 
	C325.880371,8.100070 325.365326,4.973368 325.023987,1.420787 
	C364.687561,1.000000 404.375122,1.000000 444.531311,1.000002 
	C445.332733,3.127042 445.813660,5.242918 445.974915,7.382880 
	C447.317902,25.207073 448.678223,43.030613 449.870056,60.865261 
	C450.423553,69.147873 450.122742,77.511879 451.078369,85.738007 
	C452.807068,100.618546 454.993042,115.454460 457.357330,130.250000 
	C459.282013,142.294708 461.569855,154.289566 464.035187,166.236679 
	C465.599731,173.818481 467.892120,181.247177 469.654297,188.792130 
	C470.927155,194.241913 471.663361,199.819992 473.010376,205.248672 
	C474.275574,210.347748 476.176605,215.286270 477.532684,220.366241 
	C479.787872,228.814194 481.565704,237.396942 484.034821,245.778458 
	C486.740051,254.961258 489.922882,264.007202 493.038696,273.064240 
	C497.332458,285.545410 501.461639,298.095734 506.214294,310.402863 
	C510.661255,321.918457 515.872070,333.137604 520.659058,344.524078 
	C522.619324,349.186890 524.242981,353.991730 526.220337,358.646759 
	C527.615112,361.930450 529.270935,365.111328 530.943787,368.267334 
	C535.799622,377.428467 540.723694,386.553436 545.619324,395.693542 
	C549.707092,403.325439 553.792419,410.958710 557.645020,419.125977 
	C549.296997,421.387604 543.733826,426.248077 540.853638,433.896515 
	C534.918457,449.657715 542.390869,469.273071 562.471619,469.706024 
	C570.238770,470.191742 576.520325,467.603729 582.095032,463.010071 
	C584.911621,466.045502 587.709473,469.098663 590.552368,472.109283 
	C592.086670,473.734161 593.697937,475.286316 595.689453,477.369690 
	C596.789978,480.690094 594.095337,485.258484 599.990112,485.389282 
	C601.334595,487.606964 602.510864,489.949677 604.051025,492.021912 
	C613.512207,504.751343 623.093262,517.391663 632.556274,530.119751 
	C637.559875,536.849731 642.140381,543.911255 647.400574,550.428711 
	C652.259338,556.448730 657.823303,561.895203 662.975952,567.683960 
	C666.589050,571.743103 669.905029,576.070557 673.581909,580.068298 
	C679.255371,586.236816 685.023621,592.325562 690.932373,598.268555 
	C701.109619,608.504883 711.248474,618.791016 721.744812,628.694397 
	C729.011597,635.550659 736.909546,641.733643 744.414062,648.343811 
	C748.739624,652.153931 752.650452,656.449463 757.089050,660.113281 
	C765.488403,667.046509 774.070374,673.763794 782.691956,680.421204 
	C794.720093,689.709229 806.728088,699.032532 818.995728,707.997253 
	C825.171021,712.510010 831.930908,716.217407 838.369324,720.377319 
	C844.302734,724.210938 850.039062,728.361877 856.075562,732.021179 
	C868.611816,739.620544 881.293030,746.980652 893.907349,754.451477 
	C899.601074,757.823486 905.116394,761.541443 911.001343,764.534851 
	C918.694336,768.447998 926.699951,771.742432 934.510437,775.431458 
	C936.437866,776.341858 938.029663,777.957214 939.950378,778.888428 
	C945.580811,781.618225 951.285400,784.197205 956.986511,786.778687 
	C964.317505,790.098267 971.586975,793.576050 979.040588,796.596924 
	C988.318726,800.357239 997.769043,803.690857 1007.120422,807.273071 
	C1010.054382,808.396912 1012.865479,809.844055 1015.807678,810.942993 
	C1025.199951,814.450928 1034.592651,817.963318 1044.053589,821.279175 
	C1049.958618,823.348755 1055.974365,825.107483 1061.962646,826.932617 
	C1069.827026,829.329590 1077.658081,831.865479 1085.606323,833.949280 
	C1093.071167,835.906372 1100.668823,837.357849 1108.210571,839.020569 
	C1109.832764,839.378296 1111.532715,839.500000 1113.082764,840.051147 
	C1123.510620,843.759399 1134.040894,846.819031 1145.237061,847.266968 
	C1147.073120,847.340393 1151.448975,846.479248 1150.053345,851.654907 
	C1040.312500,852.000000 930.624878,852.000000 820.468628,852.000000 
M505.792908,411.919983 
	C510.651703,412.844299 515.165039,414.130310 516.354614,419.990173 
	C516.514648,420.778503 517.905273,421.828949 518.772156,421.874084 
	C522.680786,422.077698 526.606018,421.962921 530.805542,421.962921 
	C530.802307,415.285309 528.606262,410.341919 524.081726,406.450287 
	C518.594849,401.730957 511.885223,401.038513 504.422882,400.539154 
	C499.198029,401.907501 493.614929,402.531128 488.837402,404.829376 
	C482.621887,407.819458 479.428619,413.649353 479.474152,420.673065 
	C479.520081,427.761139 482.786377,433.250488 489.455444,435.930359 
	C494.482971,437.950623 499.829407,439.177307 505.677185,441.157257 
	C508.484131,442.092743 511.641541,442.514038 513.993591,444.117035 
	C516.091919,445.547180 518.670410,448.370789 518.539673,450.420197 
	C518.390442,452.759796 515.924072,455.877869 513.660767,456.932739 
	C510.503845,458.404022 506.601593,458.275940 502.434601,458.467346 
	C497.732361,457.316437 493.347992,455.404694 492.191437,450.251099 
	C491.427490,446.847015 489.833740,445.929901 486.727814,446.255341 
	C485.086212,446.427368 483.404694,446.402008 481.755096,446.279175 
	C477.431763,445.957275 476.688019,448.039886 477.570801,451.804474 
	C480.112152,462.641785 490.238464,469.893250 503.926819,469.935242 
	C510.489136,468.506409 517.480713,468.053192 523.505493,465.402588 
	C531.094910,462.063660 533.576294,454.773041 532.924377,446.638000 
	C532.323303,439.136536 527.877136,434.538116 521.084778,432.171722 
	C515.822510,430.338379 510.398468,428.969391 504.344727,427.070221 
	C502.285553,426.415802 499.905640,426.199432 498.253235,424.989532 
	C496.432251,423.656128 494.125854,421.403229 494.137085,419.563751 
	C494.150177,417.423157 496.001923,414.661682 497.879761,413.343964 
	C499.724640,412.049347 502.602783,412.227203 505.792908,411.919983 
z"/>
<path fill="#0F0F0F" opacity="1.000000" stroke="none" 
	d="
M171.531342,1.000000 
	C172.678696,20.765654 172.889771,40.561367 174.157822,60.289135 
	C175.647095,83.457848 177.721375,106.603096 180.185913,129.689774 
	C181.715622,144.019440 184.415726,158.225418 186.637543,172.479568 
	C188.396667,183.765366 189.853775,195.115616 192.117279,206.301178 
	C195.207153,221.570312 198.885361,236.721863 202.405594,251.901947 
	C205.254456,264.186829 207.950272,276.518433 211.240967,288.686798 
	C215.622635,304.889526 220.165924,321.065857 225.280914,337.048340 
	C231.102570,355.238861 237.428787,373.276276 243.921860,391.240662 
	C248.322189,403.415070 253.187149,415.433350 258.202759,427.370850 
	C266.184845,446.368713 274.013916,465.452728 282.754242,484.103638 
	C290.639435,500.929749 299.612091,517.248718 308.198944,533.742554 
	C313.032013,543.026123 317.891022,552.303650 323.042175,561.412048 
	C327.450775,569.207397 332.130859,576.861755 336.973694,584.396667 
	C349.446259,603.802795 361.908020,623.219849 374.708496,642.409485 
	C381.796234,653.034973 389.466034,663.278320 397.034851,673.575256 
	C406.373444,686.279907 415.548676,699.126648 425.405426,711.422241 
	C435.574341,724.107178 446.488403,736.194214 457.053925,748.562073 
	C462.437897,754.864502 467.521820,761.444397 473.187408,767.480164 
	C481.914429,776.777283 490.968689,785.770630 499.986755,794.790283 
	C511.951752,806.757141 523.938904,818.703979 536.068909,830.502747 
	C542.227356,836.493103 548.751221,842.106445 555.025696,847.980225 
	C555.918152,848.815796 556.331970,850.162537 556.983643,851.636353 
	C499.979095,852.000000 442.958221,852.000000 385.467865,851.603943 
	C384.599335,849.828918 384.594177,848.099548 383.733154,847.131470 
	C379.966705,842.896973 375.716675,839.081116 372.076172,834.748535 
	C364.226685,825.406921 356.682190,815.809753 348.940399,806.376587 
	C342.455078,798.474487 335.658295,790.819458 329.374969,782.762207 
	C320.796265,771.761597 312.575317,760.482056 304.198059,749.324280 
	C300.444946,744.325439 296.701569,739.319092 292.923462,734.339172 
	C287.533569,727.234619 282.056183,720.195618 276.733673,713.041199 
	C273.779236,709.069885 270.945374,704.997131 268.263672,700.836975 
	C261.576141,690.462646 255.094177,679.955139 248.355591,669.614563 
	C244.577530,663.816833 240.078506,658.465332 236.576630,652.517029 
	C231.848068,644.485046 227.811172,636.048279 223.391815,627.831238 
	C220.195816,621.888794 216.958267,615.964417 213.562805,610.134705 
	C209.199020,602.642639 204.526535,595.328857 200.230347,587.799377 
	C195.670746,579.808228 191.291763,571.708923 187.036118,563.551392 
	C184.494736,558.679810 182.269379,553.637817 180.035568,548.613037 
	C178.018295,544.075256 176.290543,539.408020 174.242432,534.885071 
	C170.905746,527.516479 167.303772,520.267151 164.014999,512.877991 
	C160.660339,505.340820 157.580978,497.681610 154.322510,490.101013 
	C149.578171,479.063629 144.513901,468.154907 140.085037,456.993317 
	C135.970612,446.624268 132.525360,435.990204 128.757690,425.482788 
	C124.532669,413.699921 120.103714,401.986694 116.088898,390.132965 
	C112.919044,380.773926 110.101128,371.288422 107.378754,361.786896 
	C103.241211,347.346252 99.379356,332.826813 95.286560,318.373077 
	C93.072807,310.555206 90.363022,302.870514 88.353966,295.003937 
	C86.414459,287.409698 85.148270,279.645752 83.478004,271.979950 
	C80.846901,259.904358 78.053062,247.863770 75.494072,235.773224 
	C74.880501,232.874298 75.213371,229.775772 74.606171,226.874680 
	C72.534477,216.976440 69.906265,207.185013 68.115395,197.240265 
	C66.132103,186.227005 64.691139,175.108368 63.283211,164.001495 
	C61.997875,153.861725 61.020817,143.681473 60.004734,133.509399 
	C59.196964,125.422729 58.577343,117.317406 57.797829,109.227730 
	C56.909416,100.007866 55.755360,90.810066 55.046440,81.577362 
	C54.187424,70.389839 53.529133,59.181995 53.049583,47.971584 
	C52.538136,36.015514 52.467312,24.040232 51.922596,12.086164 
	C51.753227,8.369291 50.666668,4.694212 50.000000,1.000000 
	C90.354225,1.000000 130.708450,1.000000 171.531342,1.000000 
z"/>
<path fill="#343434" opacity="1.000000" stroke="none" 
	d="
M1319.833130,393.007019 
	C1302.909668,392.331604 1285.978760,391.791138 1269.069214,390.863220 
	C1265.814575,390.684601 1262.676880,388.856171 1259.426758,388.014954 
	C1251.643555,386.000397 1243.456787,387.701813 1235.612915,383.811310 
	C1229.381348,380.720520 1221.697021,380.592102 1214.685547,379.024048 
	C1211.811401,378.381287 1209.021729,377.370392 1206.172852,376.603699 
	C1203.957886,376.007629 1201.681274,375.629181 1199.486084,374.973389 
	C1197.224365,374.297668 1195.012207,373.444336 1192.806396,372.595795 
	C1188.529907,370.950714 1184.286865,369.218475 1180.004395,367.589691 
	C1175.905396,366.030731 1171.743774,364.634094 1167.663574,363.029053 
	C1160.681885,360.282623 1153.569458,357.785645 1146.834229,354.519470 
	C1140.249634,351.326447 1134.054810,347.325439 1127.712402,343.638580 
	C1118.827148,338.473541 1109.631348,333.757050 1101.169067,327.970459 
	C1088.454712,319.276276 1075.413452,311.197845 1064.004761,300.403595 
	C1053.404541,290.374237 1041.094849,282.053864 1031.244385,271.087097 
	C1026.424683,265.721008 1022.284180,259.749908 1017.565796,254.286179 
	C1013.283569,249.327454 1008.120544,245.064468 1004.255737,239.823776 
	C996.533813,229.352936 989.368958,218.466949 982.107849,207.662460 
	C978.724243,202.627609 975.655396,197.381317 972.439026,192.233887 
	C970.367859,188.919189 967.982300,185.759262 966.276428,182.266800 
	C962.919434,175.393646 959.960754,168.326721 956.789612,161.361633 
	C955.453186,158.426239 953.925964,155.577225 952.607361,152.634354 
	C948.870422,144.295105 944.885071,136.047409 941.609619,127.528328 
	C939.501587,122.045540 938.509216,116.137703 936.937683,110.442207 
	C936.503662,108.869141 935.866699,107.336113 935.167664,105.858063 
	C934.749146,104.972992 933.498657,104.208862 933.529968,103.426651 
	C933.781799,97.124329 930.589050,91.734528 929.228943,85.894394 
	C927.030212,76.453758 926.574158,66.583511 924.083313,57.240974 
	C921.297424,46.791912 921.394775,36.305214 920.828735,25.723289 
	C920.398071,17.674242 918.412537,9.708371 917.059448,1.352746 
	C981.354248,1.000000 1045.708496,1.000000 1110.531372,1.443960 
	C1112.000854,10.606799 1112.926880,19.335056 1114.018555,28.042549 
	C1116.102173,44.662506 1121.443237,60.454113 1128.094116,75.617210 
	C1134.747559,90.786270 1143.163574,105.042740 1153.320435,118.400970 
	C1165.400757,134.288925 1179.326416,148.143845 1195.188477,159.897354 
	C1211.741577,172.162933 1229.628662,182.109665 1249.365234,188.954224 
	C1272.304077,196.909378 1295.757568,200.824371 1319.903076,202.470520 
	C1319.985107,261.972229 1320.000122,321.010437 1320.000244,380.048645 
	C1320.000244,384.368103 1319.891357,388.687561 1319.833130,393.007019 
z"/>
<path fill="#0A0A0A" opacity="1.000000" stroke="none" 
	d="
M49.531342,1.000000 
	C50.666668,4.694212 51.753227,8.369291 51.922596,12.086164 
	C52.467312,24.040232 52.538136,36.015514 53.049583,47.971584 
	C53.529133,59.181995 54.187424,70.389839 55.046440,81.577362 
	C55.755360,90.810066 56.909416,100.007866 57.797829,109.227730 
	C58.577343,117.317406 59.196964,125.422729 60.004734,133.509399 
	C61.020817,143.681473 61.997875,153.861725 63.283211,164.001495 
	C64.691139,175.108368 66.132103,186.227005 68.115395,197.240265 
	C69.906265,207.185013 72.534477,216.976440 74.606171,226.874680 
	C75.213371,229.775772 74.880501,232.874298 75.494072,235.773224 
	C78.053062,247.863770 80.846901,259.904358 83.478004,271.979950 
	C85.148270,279.645752 86.414459,287.409698 88.353966,295.003937 
	C90.363022,302.870514 93.072807,310.555206 95.286560,318.373077 
	C99.379356,332.826813 103.241211,347.346252 107.378754,361.786896 
	C110.101128,371.288422 112.919044,380.773926 116.088898,390.132965 
	C120.103714,401.986694 124.532669,413.699921 128.757690,425.482788 
	C132.525360,435.990204 135.970612,446.624268 140.085037,456.993317 
	C144.513901,468.154907 149.578171,479.063629 154.322510,490.101013 
	C157.580978,497.681610 160.660339,505.340820 164.014999,512.877991 
	C167.303772,520.267151 170.905746,527.516479 174.242432,534.885071 
	C176.290543,539.408020 178.018295,544.075256 180.035568,548.613037 
	C182.269379,553.637817 184.494736,558.679810 187.036118,563.551392 
	C191.291763,571.708923 195.670746,579.808228 200.230347,587.799377 
	C204.526535,595.328857 209.199020,602.642639 213.562805,610.134705 
	C216.958267,615.964417 220.195816,621.888794 223.391815,627.831238 
	C227.811172,636.048279 231.848068,644.485046 236.576630,652.517029 
	C240.078506,658.465332 244.577530,663.816833 248.355591,669.614563 
	C255.094177,679.955139 261.576141,690.462646 268.263672,700.836975 
	C270.945374,704.997131 273.779236,709.069885 276.733673,713.041199 
	C282.056183,720.195618 287.533569,727.234619 292.923462,734.339172 
	C296.701569,739.319092 300.444946,744.325439 304.198059,749.324280 
	C312.575317,760.482056 320.796265,771.761597 329.374969,782.762207 
	C335.658295,790.819458 342.455078,798.474487 348.940399,806.376587 
	C356.682190,815.809753 364.226685,825.406921 372.076172,834.748535 
	C375.716675,839.081116 379.966705,842.896973 383.733154,847.131470 
	C384.594177,848.099548 384.599335,849.828918 384.999207,851.603943 
	C339.312439,852.000000 293.624878,852.000000 247.410675,851.651001 
	C246.083847,849.861816 245.442947,848.301270 244.459122,847.000000 
	C232.934433,831.756104 221.069580,816.760010 209.869049,801.282715 
	C196.030869,782.160583 182.232132,762.973938 169.345306,743.209473 
	C156.831116,724.016296 145.139526,704.259338 133.727722,684.381958 
	C119.815674,660.149597 106.092842,635.782776 93.200226,610.999634 
	C83.764420,592.861389 75.512871,574.084351 67.253433,555.362732 
	C57.319653,532.845825 47.028797,510.420288 38.531273,487.351562 
	C26.167328,453.786316 15.282945,419.676514 3.688178,385.826141 
	C3.203102,384.410004 1.914340,383.269104 0.999999,382.000000 
	C1.000000,254.999985 1.000000,127.999977 1.000000,1.000000 
	C17.095304,1.000000 33.078995,1.000000 49.531342,1.000000 
z"/>
<path fill="#050505" opacity="1.000000" stroke="none" 
	d="
M0.999999,382.468658 
	C1.914340,383.269104 3.203102,384.410004 3.688178,385.826141 
	C15.282945,419.676514 26.167328,453.786316 38.531273,487.351562 
	C47.028797,510.420288 57.319653,532.845825 67.253433,555.362732 
	C75.512871,574.084351 83.764420,592.861389 93.200226,610.999634 
	C106.092842,635.782776 119.815674,660.149597 133.727722,684.381958 
	C145.139526,704.259338 156.831116,724.016296 169.345306,743.209473 
	C182.232132,762.973938 196.030869,782.160583 209.869049,801.282715 
	C221.069580,816.760010 232.934433,831.756104 244.459122,847.000000 
	C245.442947,848.301270 246.083847,849.861816 246.942017,851.651001 
	C165.050110,852.000000 83.100227,852.000000 1.000000,852.000000 
	C1.000000,695.645813 1.000000,539.291565 0.999999,382.468658 
z"/>
<path fill="#3B3B3B" opacity="1.000000" stroke="none" 
	d="
M1319.832520,202.007004 
	C1295.757568,200.824371 1272.304077,196.909378 1249.365234,188.954224 
	C1229.628662,182.109665 1211.741577,172.162933 1195.188477,159.897354 
	C1179.326416,148.143845 1165.400757,134.288925 1153.320435,118.400970 
	C1143.163574,105.042740 1134.747559,90.786270 1128.094116,75.617210 
	C1121.443237,60.454113 1116.102173,44.662506 1114.018555,28.042549 
	C1112.926880,19.335056 1112.000854,10.606799 1111.000000,1.443960 
	C1179.354248,1.000000 1247.708496,1.000000 1316.618896,1.360405 
	C1318.112915,5.868147 1319.854370,10.012955 1319.867432,14.163180 
	C1320.051392,72.618256 1320.003906,131.074081 1319.998779,189.529724 
	C1319.998413,193.688812 1319.890503,197.847916 1319.832520,202.007004 
z"/>
<path fill="#FFFFFF" opacity="1.000000" stroke="none" 
	d="
M1319.903076,202.470520 
	C1319.890503,197.847916 1319.998413,193.688812 1319.998779,189.529724 
	C1320.003906,131.074081 1320.051392,72.618256 1319.867432,14.163180 
	C1319.854370,10.012955 1318.112915,5.868147 1317.087524,1.360405 
	C1318.333374,1.000000 1319.666626,1.000000 1321.000000,1.000000 
	C1321.000000,283.166656 1321.004517,565.333313 1320.858643,847.499939 
	C1320.858032,848.788940 1323.328491,852.127441 1318.500000,852.000000 
	C1318.667480,848.441772 1319.900391,844.885803 1319.914917,841.324890 
	C1320.053711,807.194397 1319.986938,773.062988 1319.906494,738.468506 
	C1319.890137,724.210327 1319.990479,710.415466 1319.994873,696.620605 
	C1320.008423,654.391479 1319.985107,612.162292 1319.904297,569.469788 
	C1319.889893,558.868225 1319.994629,548.729980 1319.996338,538.591797 
	C1320.004517,490.372528 1319.984619,442.153259 1319.903931,393.470520 
	C1319.891357,388.687561 1320.000244,384.368103 1320.000244,380.048645 
	C1320.000122,321.010437 1319.985107,261.972229 1319.903076,202.470520 
z"/>
<path fill="#EAE29D" opacity="1.000000" stroke="none" 
	d="
M744.296204,443.176605 
	C745.270569,430.896240 751.320251,422.815613 761.316711,420.117218 
	C772.732666,417.035614 784.036377,420.758270 790.045593,429.578522 
	C797.593567,440.657349 794.407471,458.710144 783.668152,465.714142 
	C771.628906,473.565948 754.508484,470.352264 747.963623,458.330750 
	C745.617798,454.021820 745.399841,448.554413 744.296204,443.176605 
M780.032104,437.801361 
	C777.664062,431.556519 773.322815,428.460632 767.860596,429.121490 
	C762.308777,429.793213 758.814880,433.332825 758.018555,439.886932 
	C757.603821,443.300598 757.702759,446.871552 758.199585,450.279602 
	C759.010803,455.844849 762.991028,459.386444 768.125427,459.793213 
	C773.971558,460.256378 778.254456,457.824097 779.660034,451.851135 
	C780.652161,447.635193 780.045227,443.042938 780.032104,437.801361 
z"/>
<path fill="#CBBA7D" opacity="1.000000" stroke="none" 
	d="
M869.854126,436.072418 
	C868.373657,432.710815 866.893250,429.349213 865.412842,425.987610 
	C865.074158,426.057709 864.735535,426.127777 864.396851,426.197876 
	C864.396851,440.053131 864.396851,453.908417 864.396851,468.167328 
	C859.669006,468.167328 855.462158,468.167328 850.823425,468.167328 
	C850.823425,446.364716 850.823425,424.531830 850.823425,402.015015 
	C857.031616,402.015015 863.335876,401.507568 869.455200,402.347321 
	C871.128967,402.576996 872.248047,406.849579 873.348999,409.762634 
	C872.385071,412.679443 871.318970,415.063629 871.076294,417.528870 
	C870.469727,423.690430 870.236938,429.888824 869.854126,436.072418 
z"/>
<path fill="#B8A067" opacity="1.000000" stroke="none" 
	d="
M908.738037,401.891235 
	C913.213989,401.815735 917.440247,401.815735 922.276428,401.815735 
	C922.276428,405.922577 922.276428,409.473053 922.338745,413.472565 
	C922.401123,431.870453 922.401123,449.819336 922.401123,468.575714 
	C918.305481,468.575714 914.688354,468.858856 911.166321,468.404510 
	C910.099243,468.266876 908.506836,466.098175 908.492310,464.844299 
	C908.340393,451.699371 908.460388,438.551270 908.694824,424.564636 
	C908.587952,416.528687 908.291260,409.332123 907.994629,402.135590 
	C908.159180,402.079285 908.323730,402.023010 908.738037,401.891235 
z"/>
<path fill="#E4D995" opacity="1.000000" stroke="none" 
	d="
M725.702026,448.563660 
	C725.833008,455.271179 725.833008,461.551697 725.833008,468.417023 
	C722.941711,468.417023 720.841370,468.417023 718.365540,467.818726 
	C717.992493,460.775757 718.074646,454.329803 717.975891,447.886658 
	C717.870361,441.004395 717.594116,434.124725 717.392334,427.243958 
	C718.400269,426.400116 719.718506,425.744904 720.364807,424.681366 
	C724.102478,418.530792 727.764648,412.330322 731.278442,406.049469 
	C732.968384,403.028778 735.021667,401.497009 738.712097,401.905945 
	C742.247986,402.297760 745.861389,401.990540 750.269836,401.990540 
	C742.625427,414.513458 735.289612,426.167206 728.398926,438.078491 
	C726.709351,440.999084 726.474670,444.761322 725.702026,448.563660 
z"/>
<path fill="#DCCF8D" opacity="1.000000" stroke="none" 
	d="
M717.254517,426.811462 
	C717.594116,434.124725 717.870361,441.004395 717.975891,447.886658 
	C718.074646,454.329803 717.992493,460.775757 717.986450,467.701599 
	C715.854797,468.308746 713.726746,468.434723 710.814148,468.607147 
	C710.814148,463.337860 710.166687,458.325592 710.953369,453.549500 
	C712.441650,444.513519 707.748962,437.904785 703.492615,430.953064 
	C697.717468,421.521027 692.031860,412.034241 686.077148,402.189484 
	C687.749695,402.107391 688.992310,402.046387 690.614441,401.916199 
	C700.942444,399.735901 706.023499,405.070679 709.633545,413.456818 
	C711.587769,417.996704 714.588196,422.086273 717.254517,426.811462 
z"/>
<path fill="#9D7C49" opacity="1.000000" stroke="none" 
	d="
M986.978760,463.428711 
	C986.986267,450.848541 987.326416,438.680786 986.983643,426.532288 
	C986.835022,421.264343 988.671936,419.623871 993.561829,420.258514 
	C995.344482,420.489929 997.182373,420.295776 999.217102,420.295776 
	C999.617737,422.178436 999.941406,423.699707 1000.184998,424.844269 
	C1003.596252,423.149628 1006.908752,421.504028 1010.606689,420.306274 
	C1010.962646,423.581573 1010.933167,426.409058 1010.903687,429.236542 
	C1002.735107,431.032745 1000.768555,433.478790 1000.703003,442.164551 
	C1000.648010,449.453644 1000.696472,456.743439 1000.675293,464.032867 
	C1000.669128,466.166931 1001.037537,468.584595 997.392456,468.789612 
	C993.916565,468.863953 990.816406,468.863953 987.465698,468.863953 
	C987.281677,466.724884 987.157959,465.286896 986.978760,463.428711 
z"/>
<path fill="#A58853" opacity="1.000000" stroke="none" 
	d="
M959.968872,419.386200 
	C972.805908,420.225006 976.964600,424.599243 976.988159,437.278198 
	C977.000427,443.879089 977.021057,450.479980 977.102600,457.546539 
	C977.335144,461.263031 977.502869,464.513855 977.675659,467.861694 
	C971.148315,469.962402 966.127808,469.096161 963.630676,465.122162 
	C962.356873,465.764160 961.063599,466.415955 959.401855,466.663086 
	C958.465637,464.342682 957.897888,462.426971 957.630371,460.316345 
	C963.042297,456.745667 964.483765,453.019104 963.191956,446.081787 
	C961.798462,446.256836 960.386292,446.434235 958.978394,446.202454 
	C958.981201,443.608276 958.979736,441.423248 958.978271,439.238220 
	C964.794373,436.257416 964.990845,432.275513 959.399170,427.936554 
	C959.517700,424.685974 959.743286,422.036102 959.968872,419.386200 
z"/>
<path fill="#BCA76D" opacity="1.000000" stroke="none" 
	d="
M907.571411,402.075073 
	C908.291260,409.332123 908.587952,416.528687 908.824951,424.076538 
	C907.583069,426.496429 906.068115,428.445496 905.274597,430.653778 
	C901.193054,442.012848 897.340393,453.454132 893.278320,464.820404 
	C892.795898,466.169983 891.522888,467.236938 890.303223,467.904419 
	C889.995605,461.779785 889.817017,456.177094 890.077637,450.594879 
	C890.226501,447.406342 889.067261,446.189880 886.033936,446.445404 
	C887.145386,444.350769 888.574158,442.362030 889.314514,440.143555 
	C892.980713,429.158386 896.668213,418.171722 899.907593,407.057190 
	C901.100098,402.965546 902.990723,401.203552 907.571411,402.075073 
z"/>
<path fill="#C8B577" opacity="1.000000" stroke="none" 
	d="
M886.006592,446.022827 
	C889.067261,446.189880 890.226501,447.406342 890.077637,450.594879 
	C889.817017,456.177094 889.995605,461.779785 889.981628,467.787659 
	C888.829651,468.314117 887.671387,468.346313 886.545349,468.553589 
	C881.952637,469.398987 879.994751,467.427856 878.716736,462.939606 
	C876.205444,454.120544 872.886658,445.531403 869.878052,436.459778 
	C870.236938,429.888824 870.469727,423.690430 871.076294,417.528870 
	C871.318970,415.063629 872.385071,412.679443 873.413696,410.126099 
	C877.827026,421.862640 881.903137,433.731445 886.006592,446.022827 
z"/>
<path fill="#AE935C" opacity="1.000000" stroke="none" 
	d="
M957.330200,460.511292 
	C957.897888,462.426971 958.465637,464.342682 959.047485,466.713715 
	C951.561218,471.103729 944.025818,471.100922 936.853149,466.646179 
	C932.053284,463.665009 931.378540,458.647583 931.782166,453.413483 
	C932.165039,448.447998 934.615356,444.543060 939.224609,443.181610 
	C945.382812,441.362610 951.838440,440.550415 958.572266,439.272034 
	C958.979736,441.423248 958.981201,443.608276 958.575806,446.309631 
	C954.822388,447.694275 951.233521,448.088196 948.227783,449.623688 
	C946.637024,450.436340 945.139282,453.308289 945.284119,455.115540 
	C945.430237,456.938141 947.338257,459.489410 949.056030,460.109100 
	C951.539246,461.004913 954.546570,460.448242 957.330200,460.511292 
z"/>
<path fill="#AE935C" opacity="1.000000" stroke="none" 
	d="
M959.515320,419.314209 
	C959.743286,422.036102 959.517700,424.685974 959.131714,427.701416 
	C953.856995,428.050598 948.456421,427.366058 946.555054,434.114471 
	C946.391785,434.693878 944.989502,435.226532 944.143250,435.258179 
	C940.703308,435.386902 937.255737,435.311707 932.241272,435.311707 
	C934.084229,431.531982 935.505798,428.616608 937.083618,425.383484 
	C943.630981,419.816223 951.093384,418.581238 959.515320,419.314209 
z"/>
<path fill="#D3C282" opacity="1.000000" stroke="none" 
	d="
M809.034485,475.376587 
	C820.820923,475.377014 832.114258,475.377014 843.838135,475.377014 
	C843.945251,477.023224 844.034241,478.390869 844.155273,480.250793 
	C830.109558,480.250793 816.500916,480.250824 802.892334,480.250824 
	C801.257141,480.250824 799.622009,480.250793 798.007385,480.250793 
	C796.743591,476.790344 797.373169,475.113892 801.059631,475.337830 
	C803.545166,475.488770 806.046875,475.372742 809.034485,475.376587 
z"/>
<path fill="#B69D64" opacity="1.000000" stroke="none" 
	d="
M600.358765,485.354523 
	C594.095337,485.258484 596.789978,480.690094 596.027832,477.435059 
	C597.192322,476.088837 598.415894,474.412872 599.677307,474.383942 
	C609.104309,474.167664 610.906982,471.688263 607.580383,462.779938 
	C602.502380,449.181702 597.378967,435.600403 591.906555,421.031250 
	C596.375488,421.031250 600.431152,420.794617 604.424011,421.190704 
	C605.476379,421.295105 606.756653,423.209442 607.213867,424.539581 
	C610.173950,433.150879 612.935242,441.830475 615.670654,451.217010 
	C615.052307,454.991455 614.074463,458.038513 614.087708,461.081268 
	C614.118958,468.285248 614.620911,475.487213 614.932617,482.689941 
	C610.197571,483.566559 605.462463,484.443176 600.358765,485.354523 
z"/>
<path fill="#AB8E58" opacity="1.000000" stroke="none" 
	d="
M582.228271,462.701904 
	C576.520325,467.603729 570.238770,470.191742 562.463745,469.330139 
	C562.021790,465.939911 562.014526,462.995392 562.408081,459.990417 
	C565.319031,459.239349 568.194641,459.105225 570.265442,457.745453 
	C575.006531,454.632233 576.941772,444.637390 574.641296,437.421021 
	C572.687073,431.290710 567.938416,429.211914 562.001099,428.568665 
	C562.012207,425.250854 562.030334,422.316895 562.048462,419.382935 
	C566.266296,419.952240 570.745483,419.806976 574.649292,421.234741 
	C583.676941,424.536377 589.087280,434.285431 588.773376,444.940582 
	C588.580200,451.496735 586.477356,457.302887 582.228271,462.701904 
z"/>
<path fill="#BCA56B" opacity="1.000000" stroke="none" 
	d="
M615.221558,482.540955 
	C614.620911,475.487213 614.118958,468.285248 614.087708,461.081268 
	C614.074463,458.038513 615.052307,454.991455 615.730469,451.614197 
	C616.815918,450.144257 618.194763,449.148865 618.612549,447.845459 
	C621.197144,439.780151 623.467712,431.613312 626.118530,423.571198 
	C626.486816,422.453918 628.315979,421.231110 629.572876,421.106628 
	C632.998779,420.767365 636.480225,420.990021 640.333801,420.990021 
	C640.263916,421.643829 640.352539,422.605011 640.046143,423.417145 
	C633.368652,441.116211 626.713623,458.824585 619.850098,476.451630 
	C618.990234,478.660156 616.985046,480.422729 615.221558,482.540955 
z"/>
<path fill="#A0814D" opacity="1.000000" stroke="none" 
	d="
M561.653564,419.298401 
	C562.030334,422.316895 562.012207,425.250854 561.655518,428.667236 
	C553.586670,431.397614 552.346680,437.748932 552.143494,444.369385 
	C551.920959,451.620850 554.017090,457.786774 562.007202,460.050842 
	C562.014526,462.995392 562.021790,465.939911 562.036865,469.260315 
	C542.390869,469.273071 534.918457,449.657715 540.853638,433.896515 
	C543.733826,426.248077 549.296997,421.387604 557.721924,419.476074 
	C559.107910,419.265686 560.183350,419.239777 561.653564,419.298401 
z"/>
<path fill="#C8B577" opacity="1.000000" stroke="none" 
	d="
M641.064697,479.544128 
	C640.198120,476.717468 640.957214,475.458740 643.746216,475.470337 
	C657.898560,475.529236 672.051270,475.497498 686.644226,475.497498 
	C686.782288,476.991699 686.908081,478.353455 687.048950,479.878296 
	C671.558105,479.878296 656.453003,479.878296 641.064697,479.544128 
z"/>
<path fill="#EEE6A0" opacity="1.000000" stroke="none" 
	d="
M376.241211,447.093903 
	C372.889252,451.213409 369.537292,455.332916 365.600586,459.532471 
	C364.673584,457.900543 364.044830,456.190277 364.034485,454.476227 
	C363.952759,440.922638 364.050140,427.367767 363.921509,413.814911 
	C363.902588,411.820770 362.982971,409.835236 362.480103,407.845703 
	C374.523834,389.833771 373.187134,371.400146 364.251373,352.054443 
	C364.536407,350.212799 364.787231,349.042603 365.038025,347.872437 
	C368.635742,350.687561 372.233459,353.502686 375.707031,356.963196 
	C375.389069,358.741913 375.027283,359.875061 375.025970,361.008606 
	C374.994049,388.152039 374.980347,415.295532 375.053406,442.438782 
	C375.057587,443.991547 375.827576,445.542236 376.241211,447.093903 
z"/>
<path fill="#C8B577" opacity="1.000000" stroke="none" 
	d="
M339.763184,432.908020 
	C341.765137,430.940918 343.767090,428.973816 346.390442,427.151917 
	C347.340027,429.207306 347.943939,431.116180 347.952881,433.027832 
	C348.028870,449.250610 347.946228,465.474304 348.068542,481.696533 
	C348.081848,483.459991 349.090637,485.215942 349.637665,486.975372 
	C346.648132,497.989075 345.928345,508.843353 351.798584,519.981079 
	C351.060364,525.965332 350.426208,531.196045 349.792023,536.426697 
	C346.939484,535.154236 344.086914,533.881775 341.134460,531.803955 
	C341.023407,500.353790 341.035919,469.708954 340.947968,439.064423 
	C340.942078,437.011169 340.175812,434.960114 339.763184,432.908020 
z"/>
<path fill="#BFA76B" opacity="1.000000" stroke="none" 
	d="
M339.463593,433.037842 
	C340.175812,434.960114 340.942078,437.011169 340.947968,439.064423 
	C341.035919,469.708954 341.023407,500.353790 341.031799,531.462280 
	C338.520599,530.410828 336.012146,528.895569 333.450012,526.747437 
	C333.595001,524.976685 333.965668,523.839233 333.967133,522.701172 
	C334.001007,496.588745 334.018555,470.476166 333.934631,444.363953 
	C333.929749,442.841888 333.042236,441.322662 332.565491,439.802094 
	C334.764984,437.590607 336.964508,435.379120 339.463593,433.037842 
z"/>
<path fill="#B1965D" opacity="1.000000" stroke="none" 
	d="
M332.274689,439.935760 
	C333.042236,441.322662 333.929749,442.841888 333.934631,444.363953 
	C334.018555,470.476166 334.001007,496.588745 333.967133,522.701172 
	C333.965668,523.839233 333.595001,524.976685 333.236023,526.488647 
	C330.470032,525.119751 327.864349,523.376526 325.208740,520.915588 
	C325.438354,517.899780 325.947479,515.602844 325.959869,513.303345 
	C326.035217,499.317200 326.113434,485.329132 325.953217,471.344452 
	C325.860107,463.217285 325.323792,455.095184 324.986908,446.970825 
	C327.319244,444.670380 329.651581,442.369904 332.274689,439.935760 
z"/>
<path fill="#A4844F" opacity="1.000000" stroke="none" 
	d="
M324.698273,447.136841 
	C325.323792,455.095184 325.860107,463.217285 325.953217,471.344452 
	C326.113434,485.329132 326.035217,499.317200 325.959869,513.303345 
	C325.947479,515.602844 325.438354,517.899780 325.075134,520.608765 
	C322.043030,518.235840 319.094604,515.451965 316.260406,512.074219 
	C316.580597,510.522400 316.964478,509.564789 316.966156,508.606537 
	C316.997131,491.056915 316.982269,473.507172 316.977142,455.957458 
	C319.454620,453.072601 321.932129,450.187744 324.698273,447.136841 
z"/>
<path fill="#DFD28F" opacity="1.000000" stroke="none" 
	d="
M387.452484,432.196838 
	C385.505615,435.027679 383.558716,437.858521 380.947998,440.705383 
	C379.856598,439.038666 379.062683,437.357178 379.056671,435.672913 
	C378.974640,412.686707 378.976349,389.700073 379.047058,366.713837 
	C379.053070,364.770447 379.700714,362.829010 380.050232,360.886688 
	C382.302490,363.365173 384.554718,365.843658 386.743286,369.025635 
	C386.464020,370.698425 386.062592,371.667267 386.060242,372.637054 
	C386.015442,391.135529 385.987366,409.634308 386.072296,428.132446 
	C386.078552,429.489319 386.971680,430.842133 387.452484,432.196838 
z"/>
<path fill="#DFD28F" opacity="1.000000" stroke="none" 
	d="
M362.267090,408.083618 
	C362.982971,409.835236 363.902588,411.820770 363.921509,413.814911 
	C364.050140,427.367767 363.952759,440.922638 364.034485,454.476227 
	C364.044830,456.190277 364.673584,457.900543 365.350983,459.785767 
	C362.813263,463.772766 359.940369,467.586548 356.528046,471.504242 
	C355.657501,469.889893 355.050720,468.173523 355.039276,466.453156 
	C354.956879,454.056152 355.066559,441.657654 354.948730,429.261200 
	C354.916046,425.825653 354.321198,422.395386 353.984314,418.962708 
	C356.674225,415.415649 359.364136,411.868591 362.267090,408.083618 
z"/>
<path fill="#936F3E" opacity="1.000000" stroke="none" 
	d="
M316.692596,456.135254 
	C316.982269,473.507172 316.997131,491.056915 316.966156,508.606537 
	C316.964478,509.564789 316.580597,510.522400 316.127625,511.763519 
	C300.979279,496.800385 301.195740,473.928406 316.692596,456.135254 
z"/>
<path fill="#E6DC98" opacity="1.000000" stroke="none" 
	d="
M381.951599,504.989075 
	C380.041901,512.018311 378.132172,519.047485 376.250824,525.972351 
	C370.160675,520.899292 368.262878,513.110779 368.396667,504.670197 
	C368.567871,493.867401 372.609222,484.302032 379.158752,475.489136 
	C380.157684,477.858856 380.818848,480.189880 380.956879,482.551514 
	C381.393646,490.024536 381.634796,497.509033 381.951599,504.989075 
z"/>
<path fill="#D3C282" opacity="1.000000" stroke="none" 
	d="
M353.692139,419.124207 
	C354.321198,422.395386 354.916046,425.825653 354.948730,429.261200 
	C355.066559,441.657654 354.956879,454.056152 355.039276,466.453156 
	C355.050720,468.173523 355.657501,469.889893 356.320282,471.784271 
	C354.412354,476.732727 352.172760,481.505035 349.785400,486.626343 
	C349.090637,485.215942 348.081848,483.459991 348.068542,481.696533 
	C347.946228,465.474304 348.028870,449.250610 347.952881,433.027832 
	C347.943939,431.116180 347.340027,429.207306 346.666595,426.998108 
	C348.680847,424.227936 351.040405,421.756836 353.692139,419.124207 
z"/>
<path fill="#EAE29D" opacity="1.000000" stroke="none" 
	d="
M379.929138,360.595520 
	C379.700714,362.829010 379.053070,364.770447 379.047058,366.713837 
	C378.976349,389.700073 378.974640,412.686707 379.056671,435.672913 
	C379.062683,437.357178 379.856598,439.038666 380.652771,440.864563 
	C379.617157,442.931458 378.213013,444.855255 376.525024,446.936462 
	C375.827576,445.542236 375.057587,443.991547 375.053406,442.438782 
	C374.980347,415.295532 374.994049,388.152039 375.025970,361.008606 
	C375.027283,359.875061 375.389069,358.741913 375.845520,357.281189 
	C377.341400,358.070648 378.574738,359.187500 379.929138,360.595520 
z"/>
<path fill="#D3C282" opacity="1.000000" stroke="none" 
	d="
M387.748718,432.055573 
	C386.971680,430.842133 386.078552,429.489319 386.072296,428.132446 
	C385.987366,409.634308 386.015442,391.135529 386.060242,372.637054 
	C386.062592,371.667267 386.464020,370.698425 386.850281,369.345337 
	C388.995331,371.725647 390.969727,374.489838 392.816284,377.988037 
	C392.481293,379.515991 392.096588,380.309204 392.093475,381.103943 
	C392.043335,393.965973 392.003418,406.828430 392.093658,419.689850 
	C392.101837,420.855469 393.018005,422.014709 393.512512,423.176880 
	C391.690002,426.089355 389.867462,429.001831 387.748718,432.055573 
z"/>
<path fill="#A58853" opacity="1.000000" stroke="none" 
	d="
M416.636902,400.989044 
	C417.941498,402.762756 418.888306,404.503754 419.784363,406.943787 
	C419.640564,422.986786 419.542419,438.330750 419.478790,453.674896 
	C419.476868,454.132263 419.837189,454.591095 420.028625,455.049225 
	C417.993591,459.193024 415.958496,463.336853 413.604736,467.224396 
	C413.189178,457.827576 413.083008,448.687073 413.002136,439.546356 
	C412.982452,437.320343 413.146881,435.025909 409.930847,434.969940 
	C415.413452,424.730469 418.602509,414.093201 415.679718,402.360962 
	C415.581573,401.967010 416.066132,401.427826 416.636902,400.989044 
z"/>
<path fill="#CBBA7D" opacity="1.000000" stroke="none" 
	d="
M388.907654,462.415955 
	C391.382690,459.307953 393.857697,456.199951 396.707825,453.337585 
	C397.389465,455.863068 397.922760,458.139038 397.961914,460.423492 
	C398.103546,468.695679 398.079224,476.970703 398.117554,485.244659 
	C395.696014,487.866119 393.274475,490.487579 390.354248,492.847046 
	C389.571045,490.641296 389.069000,488.700745 389.039825,486.753113 
	C388.918274,478.641907 388.939087,470.528534 388.907654,462.415955 
z"/>
<path fill="#B69D64" opacity="1.000000" stroke="none" 
	d="
M409.629517,435.131653 
	C413.146881,435.025909 412.982452,437.320343 413.002136,439.546356 
	C413.083008,448.687073 413.189178,457.827576 413.375793,467.525818 
	C411.260956,470.748383 409.056427,473.413239 406.355713,475.826355 
	C405.573456,470.168304 405.305054,464.761047 404.996094,459.356079 
	C404.706238,454.285370 404.373444,449.217102 404.059570,444.147766 
	C405.815796,441.196320 407.572021,438.244843 409.629517,435.131653 
z"/>
<path fill="#DCCF8D" opacity="1.000000" stroke="none" 
	d="
M388.604492,462.601929 
	C388.939087,470.528534 388.918274,478.641907 389.039825,486.753113 
	C389.069000,488.700745 389.571045,490.641296 390.046936,492.989563 
	C387.641083,497.105133 385.043915,500.816254 382.199158,504.758240 
	C381.634796,497.509033 381.393646,490.024536 380.956879,482.551514 
	C380.818848,480.189880 380.157684,477.858856 379.428131,475.284119 
	C382.180634,470.965546 385.240967,466.876709 388.604492,462.601929 
z"/>
<path fill="#C8B577" opacity="1.000000" stroke="none" 
	d="
M393.725525,422.925659 
	C393.018005,422.014709 392.101837,420.855469 392.093658,419.689850 
	C392.003418,406.828430 392.043335,393.965973 392.093475,381.103943 
	C392.096588,380.309204 392.481293,379.515991 392.857513,378.336823 
	C402.781311,392.666504 402.255035,407.591064 393.725525,422.925659 
z"/>
<path fill="#BFA76B" opacity="1.000000" stroke="none" 
	d="
M403.787109,444.330444 
	C404.373444,449.217102 404.706238,454.285370 404.996094,459.356079 
	C405.305054,464.761047 405.573456,470.168304 406.052399,475.978821 
	C403.742401,479.243073 401.239532,482.103088 398.427124,485.103882 
	C398.079224,476.970703 398.103546,468.695679 397.961914,460.423492 
	C397.922760,458.139038 397.389465,455.863068 396.995941,453.154907 
	C399.110870,449.988800 401.312744,447.250946 403.787109,444.330444 
z"/>
<path fill="#8D6737" opacity="1.000000" stroke="none" 
	d="
M426.304688,481.041443 
	C426.700378,475.671875 427.096069,470.302338 427.494171,464.932983 
	C437.120209,478.140106 439.481415,491.617004 429.291656,504.546783 
	C428.605225,498.268555 428.415161,492.229858 427.945343,486.213043 
	C427.808258,484.457184 426.873688,482.763580 426.304688,481.041443 
z"/>
<path fill="#DCCF8D" opacity="1.000000" stroke="none" 
	d="
M350.049500,536.644043 
	C350.426208,531.196045 351.060364,525.965332 351.854095,520.348877 
	C358.940643,528.078979 365.867615,536.194763 372.794586,544.310608 
	C372.636902,544.643677 372.479187,544.976807 372.321503,545.309937 
	C364.983337,542.493774 357.645142,539.677612 350.049500,536.644043 
z"/>
<path fill="#9E7E4A" opacity="1.000000" stroke="none" 
	d="
M420.314331,454.807281 
	C419.837189,454.591095 419.476868,454.132263 419.478790,453.674896 
	C419.542419,438.330750 419.640564,422.986786 419.910706,407.251953 
	C421.727020,414.287262 423.366272,421.713409 425.058411,429.572937 
	C423.607513,438.192657 422.103760,446.378998 420.314331,454.807281 
z"/>
<path fill="#967341" opacity="1.000000" stroke="none" 
	d="
M426.170990,481.383026 
	C426.873688,482.763580 427.808258,484.457184 427.945343,486.213043 
	C428.415161,492.229858 428.605225,498.268555 428.986267,504.719299 
	C426.912323,507.963715 424.754089,510.787689 422.197906,513.294189 
	C421.506653,506.115265 421.213348,499.253937 420.920044,492.392578 
	C422.625793,488.836578 424.331543,485.280579 426.170990,481.383026 
z"/>
<path fill="#C8B577" opacity="1.000000" stroke="none" 
	d="
M397.974854,529.770630 
	C394.212280,533.885193 390.449677,537.999695 386.022675,542.840820 
	C385.699188,532.026672 388.859497,523.440369 396.952881,516.748291 
	C397.592163,521.222107 397.783508,525.496338 397.974854,529.770630 
z"/>
<path fill="#A58853" opacity="1.000000" stroke="none" 
	d="
M420.596466,492.544647 
	C421.213348,499.253937 421.506653,506.115265 421.877197,513.370361 
	C419.507812,515.723328 417.061218,517.682556 414.298706,519.267761 
	C413.601532,513.089111 413.220276,507.284363 412.839020,501.479645 
	C415.316956,498.552002 417.794922,495.624359 420.596466,492.544647 
z"/>
<path fill="#BCA56B" opacity="1.000000" stroke="none" 
	d="
M398.312500,529.735718 
	C397.783508,525.496338 397.592163,521.222107 397.234558,516.585205 
	C399.843567,513.578918 402.618774,510.935150 405.868774,508.551025 
	C406.563049,510.571198 406.778687,512.332275 407.003021,514.092285 
	C407.384644,517.086060 407.771698,520.079102 408.156433,523.072449 
	C404.987671,525.281860 401.818878,527.491333 398.312500,529.735718 
z"/>
<path fill="#B1965D" opacity="1.000000" stroke="none" 
	d="
M408.493958,523.041687 
	C407.771698,520.079102 407.384644,517.086060 407.003021,514.092285 
	C406.778687,512.332275 406.563049,510.571198 406.180908,508.432800 
	C408.095154,505.985748 410.171997,503.916473 412.543945,501.663422 
	C413.220276,507.284363 413.601532,513.089111 413.979004,519.348022 
	C412.260620,520.871826 410.546021,521.941345 408.493958,523.041687 
z"/>
<path fill="#E4D995" opacity="1.000000" stroke="none" 
	d="
M364.913940,347.561249 
	C364.787231,349.042603 364.536407,350.212799 364.132751,351.711121 
	C361.617828,348.953888 359.255737,345.868439 356.893646,342.782990 
	C357.218719,342.447754 357.543762,342.112488 357.868835,341.777252 
	C360.175842,343.601532 362.482849,345.425781 364.913940,347.561249 
z"/>
<path fill="#936F3E" opacity="1.000000" stroke="none" 
	d="
M1011.256226,429.432068 
	C1010.933167,426.409058 1010.962646,423.581573 1010.988586,420.299866 
	C1022.617188,416.858276 1031.369873,422.632782 1031.897583,434.245178 
	C1032.365112,444.532410 1032.164062,454.858032 1031.922974,465.158844 
	C1031.894653,466.368103 1029.895142,467.785065 1028.514648,468.615692 
	C1027.657227,469.131622 1026.222412,468.582062 1025.084106,468.755676 
	C1020.362244,469.476074 1018.653687,467.716248 1018.896606,462.798492 
	C1019.281677,455.004547 1019.029297,447.175476 1018.933777,439.362640 
	C1018.873108,434.399292 1017.044128,430.618713 1011.256226,429.432068 
z"/>
<path fill="#8B6333" opacity="1.000000" stroke="none" 
	d="
M1042.897095,431.030945 
	C1042.896973,429.870026 1042.896729,429.203735 1042.896973,428.537445 
	C1042.900146,419.858582 1042.897827,419.982880 1051.684814,420.148560 
	C1054.868896,420.208618 1056.082153,421.176422 1056.046509,424.483704 
	C1055.902710,437.807922 1055.904419,451.135345 1056.039795,464.459686 
	C1056.072754,467.709900 1054.985840,469.101196 1051.728516,468.795013 
	C1050.407715,468.670837 1049.051514,468.655945 1047.735352,468.803772 
	C1044.072144,469.215149 1042.755737,467.783417 1042.829224,464.005585 
	C1043.039551,453.182556 1042.899536,442.352722 1042.897095,431.030945 
z"/>
<path fill="#8B6333" opacity="1.000000" stroke="none" 
	d="
M1055.749268,411.569794 
	C1052.084717,412.304016 1048.485962,413.081024 1045.057495,412.612518 
	C1044.082153,412.479279 1043.123413,408.737885 1043.057007,406.622894 
	C1043.010010,405.127991 1044.457397,403.573029 1045.303955,402.082520 
	C1045.392090,401.927338 1045.931885,402.038879 1046.260498,402.008545 
	C1056.099976,401.101135 1056.237183,401.231049 1055.749268,411.569794 
z"/>
<path fill="#967341" opacity="1.000000" stroke="none" 
	d="
M505.046356,427.394012 
	C510.398468,428.969391 515.822510,430.338379 521.084778,432.171722 
	C527.877136,434.538116 532.323303,439.136536 532.924377,446.638000 
	C533.576294,454.773041 531.094910,462.063660 523.505493,465.402588 
	C517.480713,468.053192 510.489136,468.506409 503.468475,469.440308 
	C503.012848,465.574341 503.015564,462.203308 503.018280,458.832275 
	C506.601593,458.275940 510.503845,458.404022 513.660767,456.932739 
	C515.924072,455.877869 518.390442,452.759796 518.539673,450.420197 
	C518.670410,448.370789 516.091919,445.547180 513.993591,444.117035 
	C511.641541,442.514038 508.484131,442.092743 505.347473,440.512238 
	C505.027313,435.709473 505.036835,431.551758 505.046356,427.394012 
z"/>
<path fill="#8D6737" opacity="1.000000" stroke="none" 
	d="
M504.695557,427.232117 
	C505.036835,431.551758 505.027313,435.709473 505.025818,440.312195 
	C499.829407,439.177307 494.482971,437.950623 489.455444,435.930359 
	C482.786377,433.250488 479.520081,427.761139 479.474152,420.673065 
	C479.428619,413.649353 482.621887,407.819458 488.837402,404.829376 
	C493.614929,402.531128 499.198029,401.907501 504.722809,401.147888 
	C505.024323,405.090698 505.025909,408.424805 505.027496,411.758911 
	C502.602783,412.227203 499.724640,412.049347 497.879761,413.343964 
	C496.001923,414.661682 494.150177,417.423157 494.137085,419.563751 
	C494.125854,421.403229 496.432251,423.656128 498.253235,424.989532 
	C499.905640,426.199432 502.285553,426.415802 504.695557,427.232117 
z"/>
<path fill="#8B6535" opacity="1.000000" stroke="none" 
	d="
M502.726440,458.649811 
	C503.015564,462.203308 503.012848,465.574341 503.018524,469.394135 
	C490.238464,469.893250 480.112152,462.641785 477.570801,451.804474 
	C476.688019,448.039886 477.431763,445.957275 481.755096,446.279175 
	C483.404694,446.402008 485.086212,446.427368 486.727814,446.255341 
	C489.833740,445.929901 491.427490,446.847015 492.191437,450.251099 
	C493.347992,455.404694 497.732361,457.316437 502.726440,458.649811 
z"/>
<path fill="#967341" opacity="1.000000" stroke="none" 
	d="
M505.410217,411.839417 
	C505.025909,408.424805 505.024323,405.090698 505.036499,401.287933 
	C511.885223,401.038513 518.594849,401.730957 524.081726,406.450287 
	C528.606262,410.341919 530.802307,415.285309 530.805542,421.962921 
	C526.606018,421.962921 522.680786,422.077698 518.772156,421.874084 
	C517.905273,421.828949 516.514648,420.778503 516.354614,419.990173 
	C515.165039,414.130310 510.651703,412.844299 505.410217,411.839417 
z"/>
<path fill="#252525" opacity="1.000000" stroke="none" 
	d="
M780.092163,438.210022 
	C780.045227,443.042938 780.652161,447.635193 779.660034,451.851135 
	C778.254456,457.824097 773.971558,460.256378 768.125427,459.793213 
	C762.991028,459.386444 759.010803,455.844849 758.199585,450.279602 
	C757.702759,446.871552 757.603821,443.300598 758.018555,439.886932 
	C758.814880,433.332825 762.308777,429.793213 767.860596,429.121490 
	C773.322815,428.460632 777.664062,431.556519 780.092163,438.210022 
z"/>
<path fill="#2C2C2C" opacity="1.000000" stroke="none" 
	d="
M957.630371,460.316345 
	C954.546570,460.448242 951.539246,461.004913 949.056030,460.109100 
	C947.338257,459.489410 945.430237,456.938141 945.284119,455.115540 
	C945.139282,453.308289 946.637024,450.436340 948.227783,449.623688 
	C951.233521,448.088196 954.822388,447.694275 958.571472,446.718781 
	C960.386292,446.434235 961.798462,446.256836 963.191956,446.081787 
	C964.483765,453.019104 963.042297,456.745667 957.630371,460.316345 
z"/>
<path fill="#1F1F1F" opacity="1.000000" stroke="none" 
	d="
M562.408081,459.990417 
	C554.017090,457.786774 551.920959,451.620850 552.143494,444.369385 
	C552.346680,437.748932 553.586670,431.397614 561.662659,429.051086 
	C567.938416,429.211914 572.687073,431.290710 574.641296,437.421021 
	C576.941772,444.637390 575.006531,454.632233 570.265442,457.745453 
	C568.194641,459.105225 565.319031,459.239349 562.408081,459.990417 
z"/>
</svg>